<!-- Generator: Adobe Illustrator 17.0.0, SVG Export Plug-In  -->
<svg version="1.1"
	 xmlns="http://www.w3.org/2000/svg" xmlnsXlink="http://www.w3.org/1999/xlink" xmlnsa="http://ns.adobe.com/AdobeSVGViewerExtensions/3.0/"
	 x="0px" y="0px" width="50px" height="40px" viewBox="0 -5 140 100" enable-background="new 0 0 159.832 91.422"
	 xmlSpace="preserve">
<defs>
</defs>
<linearGradient id="SVGID_1_" gradientUnits="userSpaceOnUse" x1="0" y1="62.5" x2="136" y2="62.5">
	<stop  offset="0" style="stop-color:#FFFFFF"/>
	<stop  offset="0.0357" style="stop-color:#0075BE"/>
	<stop  offset="0.4836" style="stop-color:#1E9CD7"/>
	<stop  offset="0.5459" style="stop-color:#269FD8"/>
	<stop  offset="0.6593" style="stop-color:#2DA2DA"/>
	<stop  offset="0.9745" style="stop-color:#2FA3DA"/>
	<stop  offset="0.9774" style="stop-color:#47ACDE"/>
	<stop  offset="0.9851" style="stop-color:#80C2E7"/>
	<stop  offset="0.9917" style="stop-color:#A9D2EE"/>
	<stop  offset="0.9969" style="stop-color:#C3DCF2"/>
	<stop  offset="1" style="stop-color:#CCE0F4"/>
</linearGradient>
<rect fill="url(#SVGID_1_)" width="136" height="125"/>
<g>
	<path fill="#F2F2F2" d="M58.5,28.174c0,1.583,0.74,3.201,2.211,4.853c1.48,1.643,6.195,4.569,14.162,8.759
		c7.959,4.19,13.327,8.303,16.107,12.329c2.779,4.035,4.173,8.286,4.173,12.768c0,6.961-2.908,12.51-8.724,16.64
		c-5.816,4.138-13.336,6.203-22.559,6.203c-5.094,0-10.17-1.119-15.229-3.356c-5.059-2.237-7.589-4.491-7.589-6.763
		c0-1.867-0.138-4.173-0.413-6.9c-0.275-2.736-0.413-4.939-0.413-6.599c0-3.39,1.566-5.085,4.706-5.085
		c0.903,0,1.738,0.379,2.504,1.136s1.97,3.287,3.614,7.589c1.643,4.302,3.639,7.244,5.997,8.828c2.357,1.583,5.007,2.375,7.95,2.375
		c3.622,0,6.694-1.205,9.223-3.605c2.53-2.409,3.794-5.498,3.794-9.284c0-2.469-0.86-4.784-2.573-6.952
		c-1.721-2.168-6.401-5.068-14.05-8.707c-7.657-3.648-12.631-7.201-14.928-10.669c-2.297-3.476-3.45-7.236-3.45-11.297
		c0-5.36,2.495-9.86,7.485-13.508c4.99-3.639,10.789-5.463,17.397-5.463c5.507,0,10.875,0.955,16.107,2.874
		c5.231,1.91,7.847,3.949,7.847,6.109c0,1.308,0.138,2.925,0.413,4.853c0.275,1.927,0.413,3.476,0.413,4.646
		c0,1.445-0.37,2.719-1.101,3.82c-0.731,1.101-1.652,1.652-2.77,1.652c-1.6,0-2.736-0.396-3.399-1.196
		c-0.662-0.8-1.265-2.203-1.807-4.207c-0.551-2.013-1.437-3.605-2.667-4.784c-1.23-1.179-2.865-2.254-4.913-3.226
		c-2.048-0.972-4.336-1.454-6.866-1.454s-4.93,0.809-7.219,2.426C59.645,24.586,58.5,26.324,58.5,28.174z"/>
</g>
</svg>
