<!-- Generator: Adobe Illustrator 17.0.0, SVG Export Plug-In  -->
<svg version="1.1"
	 xmlns="http://www.w3.org/2000/svg" xmlnsXlink="http://www.w3.org/1999/xlink" xmlnsa="http://ns.adobe.com/AdobeSVGViewerExtensions/3.0/"
	 x="0px" y="0px" width="50px" height="32px" viewBox="0 0 161.832 92.232" enable-background="new 0 0 161.832 92.232"
	 xmlSpace="preserve" style="backgroundColor: red">
<defs>
</defs>
<g>
	<polygon fill="#0284a8" points="92.918,11.347 129.086,0 161.832,11.347 127.375,22.695 	"/>
	<path fill="#0284a8" d="M106.644,31.419V17.272c0,0,17.457,7.31,20.633,7.074c3.177-0.236,19.367-4.952,21.367-7.074v14.147
		c0,0-6.871,3.415-21,4.008C115.181,35.951,106.644,31.419,106.644,31.419z"/>
	<path fill="#0284a8" d="M94.255,11.377"/>
	<path fill="#0284a8" d="M93.903,42.737"/>
	<g>
		<g>
			<path fill="#0284a8" d="M98.505,14.442c-0.199,3.087,0.003,6.17-0.042,9.26c-0.021,1.447-0.216,2.886-0.487,4.305
				c-0.075,0.383-0.178,0.759-0.309,1.126c1.558,0.141,1.842-0.409,0.851-1.65c-0.538-1.53-3.014-1.376-2.946,0.399
				c0.095,2.496,1.22,3.534,3.699,3.622c1.611,0.057,1.885-1.986,0.757-2.795c-0.917-0.658-1.467-1.159-2.558-1.566
				c0.119,0.914,0.239,1.828,0.358,2.742c0.884-0.447,1.476-1.29,2.136-2.003c1.325-1.431-0.669-3.383-2.121-2.121
				c-0.52,0.452-0.868,0.731-0.996,1.415c-0.128,0.681,0.079,1.318,0.689,1.694c0.228,0.137,0.452,0.28,0.673,0.428
				c1.375,1.363,3.497-0.758,2.121-2.121c-0.406-0.402-0.802-0.603-1.28-0.897c0.23,0.565,0.46,1.129,0.689,1.694
				c0.075-0.03,0.149-0.06,0.224-0.091c-0.707-0.707-1.414-1.414-2.121-2.121c-0.465,0.502-0.907,1.219-1.529,1.534
				c-1.261,0.639-0.757,2.325,0.358,2.742c0.577,0.215,1.3,0.875,1.841,1.264c0.252-0.932,0.505-1.863,0.757-2.795
				c-0.82,0.22-1.053,0.013-0.699-0.622c-0.982,0.133-1.964,0.266-2.946,0.399c0.715,2.033,3.245,5.652,4.805,1.956
				c2.029-4.808,0.748-10.745,1.074-15.795C101.63,12.509,98.629,12.522,98.505,14.442L98.505,14.442z"/>
		</g>
	</g>
</g>
<path fill="#0284a8" d="M17.644,2.81c0,0-19.5,6.5-17.5,27.5s10,23,13.5,24s50,0,50,0s2.641,12.336,9,21.5
	c6.359,9.164,15.435,15.155,19,15.5c15.5,1.5,55,0.5,55,0.5v-55l-39.5,0.5l-12.5,17.5l31,1l0.5,13l-30.5,1c0,0-5.741-1.158-8.5-5.5
	c-2.431-3.825-1.753-8.689-2.638-13.436c-0.951-5.099-11.184-12.397-26.602-12.13l-36.76-1.684c0,0-4.5-10.25,0.5-10.25s40,0,40,0
	s13-19.5,16.5-24S17.644,2.81,17.644,2.81z"/>
<path fill="#0284a8" d="M10.05,70.714"/>
<path fill="#0284a8" d="M0.106,92.232L13.457,70.81h58.174c0,0,10.198,13.751,12.483,15.788c2.285,2.036-6.557,4.345-9.651,5.634"/>
</svg>
