<!-- Generator: Adobe Illustrator 17.0.0, SVG Export Plug-In  -->
<svg version="1.1"
	 xmlns="http://www.w3.org/2000/svg" xmlnsXlink="http://www.w3.org/1999/xlink" xmlnsa="http://ns.adobe.com/AdobeSVGViewerExtensions/3.0/"
	 x="0px" y="0px" width="127.714px" height="122.032px" viewBox="0 0 127.714 122.032" enable-background="new 0 0 127.714 122.032"
	 xmlSpace="preserve">
<defs>
</defs>
<g>
	<path fill="#05578B" d="M127.695,13.724c0,0-45.5,33.5-37,53s9.5,21.5,13,26.5s10,10,10,10l-13.5-9.5l-14.5-13c0,0-30-19.5,7-44.5
		S127.695,13.724,127.695,13.724z"/>
</g>
<path fill="#05578B" d="M44.488,3.724c0,0,0.707,6.836,2.707,14.64c2.807,10.956,8.052,22.294,17.689,22.36
	c16.701,0.114,35.452-11.692,52.24-31.278c1.559-1.819,1.559-1.819,1.559-1.819S82.195,28.056,70.695,28.14
	c-11.5,0.084-19-7.416-20.5-11.416S44.488,3.724,44.488,3.724z"/>
<path fill="#05578B" d="M15.273,48.088c0,0,4.458,0.569,9.726,0.459c7.395-0.154,15.397-1.803,16.876-7.93
	C44.437,30,39.715,16.3,29.747,2.689c-0.926-1.264-0.926-1.264-0.926-1.264s7.568,26.279,5.907,33.615
	c-1.661,7.335-7.555,10.993-10.326,11.351C21.631,46.751,15.273,48.088,15.273,48.088z"/>
<path fill="#05578B" d="M24.284,97.812c0,0,4.192-1.62,8.773-4.223c6.431-3.654,12.685-8.911,11.071-15.004
	C41.33,68.027,30.659,58.223,15.416,50.994C14,50.323,14,50.323,14,50.323s19.16,19.514,21.188,26.757
	c2.028,7.242-1.416,13.263-3.682,14.897C29.24,93.61,24.284,97.812,24.284,97.812z"/>
<path fill="#05578B" d="M31.695,106.224c0,0,24-24.5,56-6l20.5,10.5l3,3l-7.5-10.5c0,0-24-29.5-49-21c0,0-9,3-14.5,9.5l-4.5,6.5
	L31.695,106.224z"/>
<g>
	<path fill="#05578B" d="M29.695,77.224c0,3.866-3.134,7-7,7s-8-3.134-8-7c0-3.866,4.134-7,8-7S29.695,73.358,29.695,77.224z"/>
	<g>
		<polyline fill="#05578B" points="11.537,63.044 15.12,77.417 10.258,91.698 5.682,76.614 11.537,63.044 		"/>
		<path fill="#05578B" d="M21.42,77.329c0.168,5.184-1.751,8.483-1.751,8.483l-6.888-0.057c0,0,3.11-6.997,3.025-8.319
			s-1.976-8.672-2.859-8.681l6.888,0.057C19.834,68.813,21.23,71.452,21.42,77.329"/>
		<path fill="#0000FF" d="M10.275,91.143"/>
		<g>
			<g>
				<path fill="#05578B" d="M11.574,90.264c1.06,0.077,2.117,0.048,3.179,0.042c0.574-0.003,1.151,0.023,1.719,0.109
					c0.187,0.029,0.372,0.064,0.556,0.105c0.507,0.185,0.408-0.023-0.298-0.624c0.05-0.385,0.101-0.771,0.151-1.156
					c0.407-0.344,0.365-0.393-0.126-0.148c-1.549,0.533-1.364,2.988,0.399,2.946c1.431-0.034,2.968-0.437,3.338-2.007
					c0.409-1.735-1.76-2.495-2.742-1.156c-0.321,0.438-0.546,0.741-0.749,1.267c0.836-0.221,1.671-0.441,2.507-0.662
					c-0.524-0.595-1.397-0.602-2.032-1.004c-1.426-0.903-3.122,1.24-1.818,2.356c1.109,0.949,2.199,0.758,3.408,0.088
					c1.692-0.938,0.179-3.529-1.514-2.59c-0.623,0.345-0.26-0.036,0.228,0.381c-0.606,0.785-1.212,1.571-1.818,2.356
					c0.267,0.169,0.578,0.27,0.872,0.385c0.133,0.052,0.776,0.402,0.553,0.15c0.814,0.925,2.134,0.307,2.507-0.662
					c0.065-0.169,0.325-0.385,0.446-0.55c-0.914-0.385-1.828-0.771-2.742-1.156c0.107-0.453,0.145-0.209-0.446-0.195
					c0.133,0.982,0.266,1.964,0.399,2.946c0.835-0.287,1.808-0.637,2.07-1.589c0.226-0.823-0.25-1.609-0.971-1.978
					c-2.08-1.064-4.844-0.492-7.079-0.653C9.643,87.125,9.656,90.126,11.574,90.264L11.574,90.264z"/>
			</g>
		</g>
	</g>
</g>
<g>
	<path fill="#05578B" d="M29.374,35.662c-2.703,2.764-7.135,2.812-9.899,0.109s-3.527-7.835-0.824-10.598s7.85-2.113,10.614,0.59
		S32.078,32.898,29.374,35.662z"/>
	<g>
		<polyline fill="#05578B" points="26.31,12.827 18.82,25.607 5.358,32.417 12.635,18.434 26.31,12.827 		"/>
		<path fill="#05578B" d="M23.385,29.95c-3.506,3.823-7.184,4.84-7.184,4.84l-4.883-4.857c0,0,7.116-2.827,7.979-3.831
			s4.651-7.581,4.026-8.205l4.883,4.857C28.207,22.754,27.359,25.616,23.385,29.95"/>
		<path fill="#0000FF" d="M5.759,32.032"/>
		<g>
			<g>
				<path fill="#05578B" d="M7.29,32.3c0.832,0.952,1.787,1.78,2.669,2.684c0.371,0.38,0.698,0.792,1,1.227
					c0.078,0.114,0.15,0.232,0.217,0.353c-0.559-0.959,2.113-1.282,1.031-1.806c-1.469-0.711-3.123,1.127-1.818,2.356
					c1.021,0.961,2.468,1.81,3.804,0.91c1.436-0.968,0.525-3.071-1.156-2.742c-0.343,0.067-0.954,0.155-1.421,0.383
					c0.752,0.432,1.505,0.863,2.257,1.295c0.098-0.745-0.645-1.647-0.751-2.157c-0.35-1.685-2.954-1.265-2.946,0.399
					c0.007,1.448,1.089,2.102,2.341,2.454c1.866,0.524,2.657-2.371,0.798-2.893c-0.099-0.028-0.198-0.055-0.297-0.082
					c-0.555-0.15,0.156-0.134,0.159,0.521c-0.982,0.133-1.964,0.266-2.946,0.399c0.069,0.331,0.245,0.647,0.387,0.953
					c0.124,0.27,0.193,0.899,0.258,0.407c-0.161,1.231,1.365,1.73,2.257,1.295c-0.026,0.013,0.514-0.043,0.704-0.08
					c-0.385-0.914-0.771-1.828-1.156-2.742c0.336-0.226,0.137-0.153-0.168-0.441c-0.606,0.785-1.212,1.571-1.818,2.356
					c0.801,0.387,1.756,0.836,2.617,0.332c0.9-0.527,0.96-1.618,0.536-2.47c-1.005-2.022-2.98-3.366-4.434-5.031
					C8.137,28.719,6.024,30.85,7.29,32.3L7.29,32.3z"/>
			</g>
		</g>
	</g>
</g>
<g>
	<path fill="#05578B" d="M70.09,24.02c-3.864,0.128-7.1-2.901-7.227-6.765s2.868-8.099,6.732-8.227
		c3.864-0.128,7.133,3.9,7.26,7.764C76.982,20.657,73.954,23.893,70.09,24.02z"/>
	<g>
		<polyline fill="#05578B" points="83.662,5.403 69.415,9.459 54.981,5.072 69.906,0 83.662,5.403 		"/>
		<path fill="#05578B" d="M69.711,15.753c-5.176,0.339-8.537-1.47-8.537-1.47l-0.17-6.886c0,0,7.096,2.877,8.414,2.749
			c1.318-0.129,8.602-2.262,8.581-3.145l0.17,6.886C78.17,13.887,75.579,15.369,69.711,15.753"/>
		<path fill="#0000FF" d="M55.537,5.071"/>
		<g>
			<g>
				<path fill="#05578B" d="M56.457,6.291c-0.041,1.062,0.022,2.118,0.063,3.179c0.021,0.532,0.002,1.06-0.03,1.591
					c-0.018,0.233-0.05,0.463-0.094,0.692c-0.171,0.511,0.045,0.416,0.649-0.284c0.385,0.05,0.771,0.101,1.156,0.151
					c0.343,0.412,0.381,0.376,0.114-0.107c-0.565-1.483-3.049-1.407-2.946,0.399c0.079,1.402,0.493,2.99,2.069,3.307
					c1.69,0.34,2.577-1.771,1.156-2.742c-0.45-0.308-0.756-0.534-1.286-0.719c0.221,0.836,0.441,1.671,0.662,2.507
					c0.544-0.512,0.722-1.675,0.946-2.057c0.843-1.433-1.27-3.175-2.356-1.818c-0.91,1.137-0.757,2.196-0.035,3.402
					c0.992,1.658,3.586,0.15,2.59-1.514c-0.41-0.685,0.026-0.341-0.434,0.233c-0.785-0.606-1.571-1.212-2.356-1.818
					c-0.16,0.272-0.263,0.582-0.368,0.879c-0.1,0.282-0.559,0.994-0.109,0.57c-0.87,0.818-0.358,2.153,0.662,2.507
					c0.201,0.07,0.388,0.292,0.57,0.416c0.385-0.914,0.771-1.828,1.156-2.742c0.076,0.078,0.152,0.156,0.228,0.234
					c-0.071-0.21-0.102-0.426-0.095-0.648c-0.982,0.133-1.964,0.266-2.946,0.399c0.315,0.827,0.67,1.789,1.623,2.052
					c0.813,0.224,1.625-0.249,1.969-0.98c1.001-2.129,0.356-4.833,0.444-7.09C59.533,4.355,56.532,4.363,56.457,6.291L56.457,6.291z
					"/>
			</g>
		</g>
	</g>
</g>
<g>
	<path fill="#05578B" d="M63.358,98.018c3.861-0.191,7.146,2.785,7.337,6.646c0.191,3.861-2.736,8.145-6.597,8.335
		s-7.195-3.784-7.386-7.645S59.497,98.209,63.358,98.018z"/>
	<g>
		<polyline fill="#05578B" points="50.091,116.854 64.27,112.567 78.773,116.718 63.933,122.032 50.091,116.854 		"/>
		<path fill="#05578B" d="M63.871,106.278c5.17-0.423,8.559,1.33,8.559,1.33l0.282,6.882c0,0-7.141-2.762-8.458-2.611
			c-1.316,0.15-8.564,2.402-8.529,3.284l-0.282-6.882C55.444,108.282,58.01,106.758,63.871,106.278"/>
		<path fill="#0000FF" d="M78.218,116.728"/>
		<g>
			<g>
				<path fill="#05578B" d="M77.278,115.548c0.024-1.063-0.057-2.117-0.115-3.177c-0.029-0.532-0.019-1.059,0.004-1.591
					c0.015-0.233,0.041-0.464,0.077-0.694c0.165-0.513-0.056-0.421-0.662,0.278c-0.385-0.05-0.771-0.101-1.156-0.151
					c-0.343-0.415-0.375-0.382-0.098,0.098c0.58,1.449,3.08,1.426,2.946-0.399c-0.101-1.388-0.519-3-2.099-3.291
					c-1.666-0.307-2.617,1.778-1.156,2.742c0.455,0.3,0.763,0.528,1.295,0.703c-0.221-0.836-0.441-1.671-0.662-2.507
					c-0.543,0.528-0.696,1.676-0.918,2.068c-0.813,1.435,1.286,3.2,2.356,1.818c0.89-1.151,0.757-2.195,0.01-3.399
					c-1.017-1.64-3.613-0.135-2.59,1.514c0.413,0.665-0.007,0.366,0.459-0.237c0.785,0.606,1.571,1.212,2.356,1.818
					c0.156-0.276,0.259-0.582,0.36-0.882c0.091-0.273,0.542-1.019,0.089-0.578c0.843-0.819,0.383-2.163-0.662-2.507
					c-0.212-0.07-0.39-0.276-0.579-0.401c-0.385,0.914-0.771,1.828-1.156,2.742c-0.072-0.082-0.143-0.165-0.215-0.247
					c0.073,0.209,0.11,0.425,0.112,0.646c0.982-0.133,1.964-0.266,2.946-0.399c-0.329-0.823-0.686-1.78-1.639-2.042
					c-0.808-0.222-1.632,0.249-1.964,0.985c-0.97,2.152-0.289,4.826-0.341,7.093C74.234,117.484,77.234,117.479,77.278,115.548
					L77.278,115.548z"/>
			</g>
		</g>
	</g>
</g>
<g>
	<path fill="#05578B" d="M97.23,62.864c-0.113-3.864,2.929-7.088,6.793-7.201c3.864-0.113,8.088,2.9,8.201,6.764
		c0.113,3.864-3.928,7.117-7.793,7.23C100.566,69.769,97.342,66.728,97.23,62.864z"/>
	<g>
		<polyline fill="#05578B" points="115.794,76.508 111.794,62.246 116.237,47.829 121.251,62.774 115.794,76.508 		"/>
		<path fill="#05578B" d="M105.499,62.518c-0.319-5.177,1.503-8.531,1.503-8.531l6.886-0.143c0,0-2.905,7.084-2.781,8.403
			s2.228,8.611,3.111,8.594l-6.886,0.143C107.332,70.984,105.86,68.387,105.499,62.518"/>
		<path fill="#0000FF" d="M116.236,48.385"/>
		<g>
			<g>
				<path fill="#05578B" d="M115.007,49.3c-1.062-0.046-2.118,0.014-3.179,0.051c-0.532,0.018-1.06-0.003-1.591-0.036
					c-0.232-0.021-0.463-0.054-0.691-0.099c-0.511-0.173-0.415,0.042,0.286,0.646c-0.05,0.385-0.101,0.771-0.151,1.156
					c-0.412,0.343-0.375,0.382,0.11,0.118c1.49-0.562,1.402-3.041-0.399-2.946c-1.405,0.074-2.988,0.487-3.311,2.062
					c-0.348,1.696,1.769,2.567,2.742,1.156c0.31-0.449,0.536-0.754,0.722-1.284c-0.836,0.221-1.671,0.441-2.507,0.662
					c0.508,0.544,1.675,0.728,2.054,0.953c1.433,0.85,3.168-1.266,1.818-2.356c-1.133-0.914-2.197-0.757-3.403-0.042
					c-1.662,0.985-0.154,3.579,1.514,2.59c0.69-0.409,0.335,0.03-0.232-0.428c0.606-0.785,1.212-1.571,1.818-2.356
					c-0.271-0.161-0.582-0.264-0.878-0.37c-0.284-0.102-0.988-0.563-0.568-0.114c-0.818-0.877-2.151-0.352-2.507,0.662
					c-0.07,0.198-0.296,0.388-0.42,0.567c0.914,0.385,1.828,0.771,2.742,1.156c-0.077,0.077-0.154,0.154-0.23,0.231
					c0.211-0.068,0.427-0.099,0.649-0.091c-0.133-0.982-0.266-1.964-0.399-2.946c-0.828,0.312-1.792,0.666-2.054,1.619
					c-0.224,0.814,0.249,1.623,0.979,1.97c2.123,1.009,4.834,0.372,7.089,0.468C116.942,52.383,116.934,49.383,115.007,49.3
					L115.007,49.3z"/>
			</g>
		</g>
	</g>
</g>
<path fill="none" d="M0,53.843"/>
</svg>
