<!-- Generator: Adobe Illustrator 17.0.0, SVG Export Plug-In  -->
<svg version="1.1"
	 xmlns="http://www.w3.org/2000/svg" xmlnsXlink="http://www.w3.org/1999/xlink" xmlnsa="http://ns.adobe.com/AdobeSVGViewerExtensions/3.0/"
	 x="0px" y="0px" width="60px" height="30px" viewBox="0 0 69.611 41.751" enable-background="new 0 0 69.611 41.751"
	 xmlSpace="preserve">
<defs>
</defs>
<g>
	<g>
		<path d="M8.495,27.763"/>
		<g>
			<path d="M8.495,29.263c1.935,0,1.935-3,0-3S6.561,29.263,8.495,29.263L8.495,29.263z"/>
		</g>
	</g>
	<g>
		<path d="M9.202,14.457c-0.353,4.094,0.353,8.188-0.353,12.282c-0.353,2.388-1.06,5.117-2.473,0.682
			c0,1.706,0.353,2.047,2.12,2.047c-0.707-0.341-0.707-1.023-2.12-1.365"/>
		<g>
			<path d="M7.702,14.457c-0.192,2.978,0.003,5.952-0.04,8.932c-0.02,1.391-0.207,2.774-0.467,4.139
				c-0.07,0.351-0.162,0.697-0.276,1.036c1.561,0.2,1.862-0.314,0.904-1.542c-0.538-1.531-3.014-1.376-2.946,0.399
				c0.093,2.437,1.2,3.461,3.62,3.547c1.612,0.057,1.884-1.986,0.757-2.795c-0.886-0.636-1.423-1.122-2.478-1.516
				c-1.816-0.678-2.593,2.222-0.798,2.893c0.554,0.207,1.244,0.842,1.761,1.213c0.252-0.932,0.505-1.863,0.757-2.795
				c-0.792,0.202-0.998,0.02-0.62-0.547c-0.982,0.133-1.964,0.266-2.946,0.399c0.4,1.139,0.873,2.997,2.238,3.373
				c1.159,0.319,2.046-0.414,2.476-1.435c1.969-4.67,0.742-10.395,1.058-15.301C10.826,12.525,7.826,12.537,7.702,14.457
				L7.702,14.457z"/>
		</g>
	</g>
	<polygon fill="#FFFFFF" stroke="#000000" stroke-miterlimit="10" points="1.632,11.472 36.49,0.527 68.05,11.472 34.841,22.418 	
		"/>
	<path fill="#FFFFFF" stroke="#000000" stroke-miterlimit="10" d="M15.102,30.833V17.187c0,0,16.585,7.051,19.647,6.823
		c3.062-0.227,18.353-4.776,20.353-6.823v13.647c0,0-6.383,3.294-20,3.867C23.09,35.205,15.102,30.833,15.102,30.833z"/>
	<path fill="#0000FF" d="M3.66,11.501"/>
	<path fill="#0000FF" d="M3.321,41.751"/>
</g>
</svg>
