<!-- Generator: Adobe Illustrator 17.0.0, SVG Export Plug-In  -->
<svg version="1.1"
	 xmlns="http://www.w3.org/2000/svg" xmlns:xlink="http://www.w3.org/1999/xlink" xmlns:a="http://ns.adobe.com/AdobeSVGViewerExtensions/3.0/"
	 x="0px" y="0px" width="224.209px" height="148.23px" viewBox="0 0 224.209 148.23" enable-background="new 0 0 224.209 148.23"
	 xml:space="preserve">
<defs>
</defs>
<g>
	<g>
		<path fill="#81B71A" stroke="#008729" stroke-width="0.2706" stroke-linecap="round" stroke-linejoin="round" d="M77.642,60.628
			c0,0,23.679,13.395,48.034,8.659c2.842-1.082,2.842-4.465-0.676-7.306c-3.112-2.978,0.541-3.248,0.541-3.248
			s5.006,4.33,4.195,8.66c-0.812,4.329,4.735,0.135,10.824-3.653c6.089-3.789,46.41-31.933,82.266-16.913
			c7.307,3.788-19.213-2.03-33.827-1.489c-14.613,0.542-50.198,16.373-55.476,25.573c-3.382,5.683-7.036,20.702-15.56,24.22
			c-0.541-0.271-0.541-1.352-0.541-1.352s10.96-9.878,12.448-20.432c0.542-2.57-1.353-3.924-5.412-2.029
			c-4.059,1.894-40.592-1.488-48.304-7.577C76.965,63.199,77.642,60.628,77.642,60.628z"/>
		<g>
			<path opacity="0.38" fill="#81B71A" d="M222.825,46.827c-1.32-0.554-2.647-1.042-3.978-1.481
				c-2.864,0.303-7.657,0.277-15.641-0.82c-17.725-2.436-31.797,4.06-36.533,5.548c-0.71,0.223-1.301,0.346-1.815,0.409
				c-12.472,5.317-21.643,11.604-24.299,13.257c-6.089,3.788-11.636,7.982-10.824,3.653c0.812-4.33-4.195-8.66-4.195-8.66
				s-3.653,0.271-0.541,3.248c3.518,2.841,3.518,6.224,0.676,7.306c-2.165,0.421-4.323,0.696-6.461,0.854
				c-3.743,2.393-25.779-0.516-32.101-3.424c-3.216-1.479-4.474-2.836-4.91-3.853c-2.898-1.295-4.562-2.235-4.562-2.235
				s-0.676,2.571-1.488,3.112c7.712,6.089,44.245,9.471,48.304,7.577c4.06-1.895,5.954-0.541,5.412,2.029
				c-1.488,10.554-12.448,20.432-12.448,20.432s0,1.082,0.541,1.352c8.524-3.518,12.178-18.537,15.56-24.22
				c5.277-9.2,40.863-25.031,55.476-25.573C203.612,44.797,230.132,50.615,222.825,46.827z"/>
		</g>
	</g>
	<g>
		<g>
			<path fill="#F9D0D3" stroke="#DB5C6C" stroke-width="0.2706" stroke-linecap="round" stroke-linejoin="round" d="M33.396,48.179
				c0,0-9.201-8.795-12.583-10.96c-3.383-2.165-7.261-11.23-4.284-15.47c2.976-4.239,4.149-6.404,6.404-5.683
				c2.255,0.722,0.541-2.346,3.698-1.173c3.157,1.173,0.09-3.698,4.51-1.984c2.526,0.722,2.886-3.698,5.232-2.346
				c2.345,1.353,0.992-1.623,8.389-1.713C52.159,8.761,59.646,13,54.414,21.57c-5.232,8.568-6.585,28.504-11.727,29.677
				C37.546,52.42,36.914,50.705,33.396,48.179z"/>
			<path fill="#ED84A1" d="M38.538,42.857c0,0-5.413-13.26-3.969-20.566c-0.541,0.992-1.353,10.554,3.428,21.017
				C38.538,43.489,38.538,42.857,38.538,42.857z"/>
			<path fill="#ED84A1" d="M37.095,44.481c0,0-6.675-9.652-6.766-14.433c0.541,1.714,5.142,12.719,7.487,14.072
				C37.907,44.843,37.095,44.481,37.095,44.481z"/>
			<g opacity="0.38">
				<path fill="#F1A2B3" d="M50.535,21.66c-2.706,3.156-5.232,8.389-6.133,11.546c-0.902,3.157-0.632-6.404-2.075-0.722
					c-1.443,5.683-1.984,7.307-3.517,4.149c-1.534-3.157-3.248-5.593-3.338-2.165c-0.09,3.428-3.428,0.722-3.969-0.451
					c2.525,6.585,0,6.404-1.984,3.519c-1.441,3.4-7.151,0.025-11.088-2.855c0.758,1.128,1.584,2.027,2.383,2.539
					c3.383,2.165,12.583,10.96,12.583,10.96c3.518,2.525,4.15,4.24,9.292,3.067c5.142-1.173,6.495-21.108,11.727-29.677
					c1.875-3.073,2.11-5.586,1.307-7.545C54.75,16.604,52.406,19.476,50.535,21.66z"/>
			</g>
			<path fill="#ED84A1" d="M35.561,44.211c0,0-5.863-4.78-7.126-8.389c0.992,1.533,5.051,6.855,7.848,8.299
				C36.644,44.211,35.561,44.211,35.561,44.211z"/>
			<g>
				<path fill="#F1A2B3" d="M17.972,28.967c1.984,4.059,5.322,8.389,3.337,4.69c-1.984-3.698-3.337-6.766-1.443-4.149
					c1.895,2.616,2.166,5.863,2.346,0.541c0.18-5.322-0.451-6.315,1.172-2.436c1.623,3.879,2.435,3.338,1.714-0.901
					c-0.62-3.646,1.358-0.625,2.442,1.785c-0.356-1.319-0.727-3.234-0.727-5.304c0-4.781,0.09-2.706,1.714,0.902
					c1.623,3.608,0.992,3.879,1.082-0.992c0.09-4.871,0.992,1.623,1.894,4.33c0.902,2.705-1.443-3.519,0.36-7.758
					c1.805-4.24,2.075-1.264,2.075,0.18c0,1.443,1.172,1.174,1.443-1.623c0.271-2.797,0.902,1.173,1.173,5.142
					c0.271,3.969,1.624-0.722,2.255-4.962c0.631-4.239-0.181,1.354,0.631,6.135c0.812,4.78,0.452,3.156,1.985-3.879
					c1.533-7.036,1.443-8.299,1.443-4.239c0,4.059-0.901,7.396,0.542,3.247c1.443-4.149,2.255-4.781,2.345-1.714
					c0.09,3.067-0.361,3.157,1.714-0.271c2.075-3.428,1.624-2.616,1.263-0.271c-0.361,2.346-0.271,1.985,1.083-1.533
					c1.353-3.518,0.992,0.361,0.271,2.075c-0.722,1.714,2.887-3.608,2.436-1.533c-0.382,1.756,0.66-0.626,3.232-2.328
					c-1.4-3.556-6.211-5.308-10.99-5.249c-7.397,0.09-6.043,3.066-8.389,1.713c-2.346-1.352-2.706,3.067-5.232,2.346
					c-4.42-1.714-1.353,3.157-4.51,1.984c-3.157-1.173-1.443,1.894-3.698,1.173c-2.255-0.722-3.428,1.443-6.404,5.683
					c-1.971,2.807-0.937,7.726,0.968,11.36C17.068,30.126,16.683,26.329,17.972,28.967z"/>
			</g>
			<path opacity="0.74" fill="#F1A2B3" d="M30.014,41.414c0,0,2.3-0.202,3.518,0.813s0.136,0-0.338-1.218
				c-0.474-1.218,0.338-0.812,1.285,0.405c0.947,1.219,0-0.067-0.271-1.42c-0.271-1.354,0.879,0.744,1.895,1.691
				c1.015,0.947,1.082-0.474,0.744-2.774c-0.339-2.3,0.608,1.354,1.556,2.301c0.947,0.946,3.044-0.947,4.33-3.519
				c1.285-2.57,1.15-1.826,1.15,0.88c0,2.706-0.947,3.383-0.744,5.276c0.203,1.895-3.543,2.039-3.97,2.44
				c-0.427,0.401-3.81-0.343-4.351-0.613C34.276,45.406,28.593,41.346,30.014,41.414z"/>
		</g>
		<path fill="#F9D0D3" stroke="#DB5C6C" stroke-width="0.2706" stroke-linecap="round" stroke-linejoin="round" d="M43.139,45.472
			c0,0,0-18.582,11.456-26.52c10.102-6.856,14.522-3.519,14.522-1.805c0,1.715-0.271,1.984,1.804,1.353
			c2.075-0.631,1.804,0.723,1.714,1.624c-0.09,0.902,1.443,0,1.082,1.805c-0.361,1.805,1.534,1.714,3.067,2.346
			c1.533,0.631,0.542,1.894,1.083,4.6c0.541,2.707,2.706,5.322,1.533,8.66c-1.172,3.337-3.969,7.036-16.146,7.667
			C51.077,45.833,43.048,50.163,43.139,45.472z"/>
		<path fill="#ED84A1" d="M44.852,42.678c0,0,4.239-12.539,14.342-14.884C57.03,27.703,47.559,34.83,45.303,43.76
			C45.123,43.308,44.852,42.678,44.852,42.678z"/>
		<path fill="#ED84A1" d="M43.68,45.023c0,0,9.201-9.382,17.77-10.464c-2.436-0.181-8.663,1.001-18.042,9.927
			C42.597,44.121,43.68,45.023,43.68,45.023z"/>
		<g>
			<path opacity="0.37" fill="#F1A2B3" d="M52.43,39.34c0.478-1.594,2.613-2.686,4.067-3.241c-1.431,0.362-3.219,0.604-2.354-0.728
				c0.659-1.013,2.937-2.025,4.091-2.479c-0.181,0.062-0.399,0.136-0.663,0.224c-4.059,1.354-7.577,2.887-6.585,0.361
				c0.993-2.525,8.208-5.322,3.969-3.879c-6.044,1.984-9.562,9.652-8.028,3.428c1.198-6.406,6.605-12.333,10.108-15.596
				c-0.774,0.441-1.585,0.942-2.44,1.524c-11.456,7.938-11.456,26.52-11.456,26.52c-0.091,4.69,7.938,0.36,20.115-0.271
				c6.772-0.351,10.64-1.651,12.944-3.31c-1.574-0.31-3.727-0.781-6.72-1.38C60.007,38.618,51.618,42.046,52.43,39.34z"/>
		</g>
		<path opacity="0.74" fill="#F1A2B3" d="M44.852,34.469c0,0-1.353,6.314,1.353,4.059c2.706-2.254,2.075-2.706,0.992-0.271
			c-1.083,2.436,0,1.443,2.977-0.271c2.977-1.713,3.518-1.172,0.812,0.902c-2.706,2.074-3.248,3.157-0.361,2.165
			c2.887-0.992,5.412-0.361,2.255,0.632c-3.157,0.992-7.938,4.149-8.479,4.781C43.86,47.097,42.237,43.489,44.852,34.469z"/>
		<g>
			
				<ellipse transform="matrix(-0.9852 -0.1714 0.1714 -0.9852 71.5472 94.2485)" fill="#FFE01F" stroke="#F39600" stroke-width="0.2706" stroke-linecap="round" stroke-linejoin="round" cx="39.842" cy="44.035" rx="2.014" ry="2.208"/>
			<path fill="#FFE01F" d="M40.556,43.329c-2.199-1.097-2.689,3.165-2.438-0.365c-0.121,0.22-0.213,0.462-0.26,0.727
				c-0.208,1.202,0.51,2.329,1.606,2.521c1.096,0.191,2.153-0.629,2.362-1.83c0.015-0.083,0.014-0.163,0.02-0.244
				C41.422,44.917,41.763,43.931,40.556,43.329z"/>
		</g>
		<g>
			
				<ellipse transform="matrix(-0.8827 -0.4699 0.4699 -0.8827 60.8219 104.1518)" fill="#FFE01F" stroke="#F39600" stroke-width="0.2706" stroke-linecap="round" stroke-linejoin="round" cx="43.408" cy="44.486" rx="2.003" ry="2.197"/>
			<path fill="#FFE01F" d="M44.301,44.04c-1.739-1.719-3.523,2.158-2.191-1.102c-0.183,0.171-0.346,0.371-0.471,0.607
				c-0.569,1.071-0.24,2.36,0.737,2.881c0.978,0.52,2.23,0.072,2.8-0.998c0.04-0.073,0.063-0.15,0.094-0.226
				C44.628,45.809,45.255,44.983,44.301,44.04z"/>
		</g>
		<g>
			
				<ellipse transform="matrix(-0.9852 -0.1716 0.1716 -0.9852 64.0519 96.5439)" fill="#FFE01F" stroke="#F39600" stroke-width="0.2706" stroke-linecap="round" stroke-linejoin="round" cx="36.199" cy="45.503" rx="2.029" ry="2.224"/>
			<path fill="#FFE01F" d="M36.918,44.792c-2.216-1.104-2.709,3.188-2.456-0.368c-0.122,0.223-0.216,0.465-0.262,0.731
				c-0.21,1.211,0.513,2.347,1.618,2.539c1.104,0.192,2.169-0.633,2.379-1.843c0.015-0.084,0.014-0.164,0.02-0.247
				C37.79,46.391,38.133,45.398,36.918,44.792z"/>
		</g>
		<g>
			
				<ellipse transform="matrix(-0.9852 -0.1714 0.1714 -0.9852 69.8215 98.6093)" fill="#FFE01F" stroke="#F39600" stroke-width="0.2706" stroke-linecap="round" stroke-linejoin="round" cx="39.168" cy="46.29" rx="2.264" ry="2.484"/>
			<path fill="#FFE01F" d="M39.971,45.496c-2.473-1.234-3.024,3.559-2.742-0.411c-0.135,0.248-0.24,0.52-0.292,0.817
				c-0.234,1.352,0.573,2.619,1.806,2.835c1.233,0.214,2.421-0.708,2.656-2.059c0.017-0.093,0.016-0.183,0.023-0.274
				C40.945,47.282,41.328,46.174,39.971,45.496z"/>
		</g>
		<g>
			
				<ellipse transform="matrix(-0.9852 -0.1716 0.1716 -0.9852 78.2971 100.6125)" fill="#FFE01F" stroke="#F39600" stroke-width="0.2706" stroke-linecap="round" stroke-linejoin="round" cx="43.498" cy="46.922" rx="2.265" ry="2.483"/>
			<path fill="#FFE01F" d="M44.3,46.127c-2.473-1.233-3.024,3.56-2.742-0.41c-0.135,0.247-0.24,0.52-0.292,0.816
				c-0.234,1.352,0.573,2.62,1.806,2.835c1.233,0.214,2.422-0.707,2.656-2.058c0.017-0.094,0.016-0.184,0.022-0.275
				C45.275,47.913,45.657,46.804,44.3,46.127z"/>
		</g>
		<g>
			
				<ellipse transform="matrix(-0.9852 -0.1716 0.1716 -0.9852 65.9759 103.3356)" fill="#FFE01F" stroke="#F39600" stroke-width="0.2706" stroke-linecap="round" stroke-linejoin="round" cx="37.454" cy="48.816" rx="2.265" ry="2.483"/>
			<path fill="#FFE01F" d="M38.257,48.022c-2.474-1.233-3.024,3.559-2.743-0.411c-0.135,0.247-0.24,0.52-0.292,0.816
				c-0.234,1.352,0.573,2.62,1.806,2.834c1.233,0.215,2.421-0.706,2.656-2.057c0.016-0.094,0.015-0.184,0.022-0.275
				C39.231,49.807,39.614,48.699,38.257,48.022z"/>
		</g>
		<g>
			
				<ellipse transform="matrix(-0.9852 -0.1716 0.1716 -0.9852 75.0912 104.3041)" fill="#FFE01F" stroke="#F39600" stroke-width="0.2706" stroke-linecap="round" stroke-linejoin="round" cx="42.054" cy="48.906" rx="2.265" ry="2.483"/>
			<path fill="#FFE01F" d="M42.857,48.112c-2.473-1.233-3.024,3.56-2.742-0.411c-0.135,0.248-0.24,0.519-0.292,0.816
				c-0.234,1.352,0.573,2.62,1.806,2.835c1.233,0.215,2.422-0.706,2.656-2.058c0.017-0.093,0.016-0.184,0.022-0.275
				C43.831,49.897,44.214,48.789,42.857,48.112z"/>
		</g>
		<g>
			<path fill="none" d="M24.534,71.179c-0.165,0.154-0.332,0.307-0.503,0.457C24.208,71.488,24.374,71.336,24.534,71.179z"/>
			<path fill="#F1A2B3" stroke="#DC6C8E" stroke-width="0.2706" stroke-linecap="round" stroke-linejoin="round" d="M21.252,73.706
				c0.996-0.604,1.926-1.316,2.779-2.069c-0.18,0.151-0.358,0.305-0.557,0.447C22.691,72.648,21.949,73.191,21.252,73.706z"/>
		</g>
		<g>
			<path fill="#F1A2B3" d="M77.868,28.875c-0.541-2.706,0.451-3.969-1.083-4.6c-1.533-0.632-3.428-0.541-3.067-2.346
				c0.36-1.805-1.173-0.902-1.082-1.805c0.09-0.901,0.361-2.255-1.714-1.624c-2.075,0.632-1.804,0.362-1.804-1.353
				c0-1.714-4.42-5.051-14.522,1.805c-0.427,0.295-0.833,0.61-1.229,0.934c-0.587,0.627-1.081,1.236-1.387,1.772
				c-1.443,2.525,8.298-4.511,6.314-2.887c-1.984,1.624-7.758,5.322-4.6,3.879c3.157-1.443,5.413-1.895,3.879-1.082
				c-1.534,0.812-1.714,0.901,1.713,0.18c1.272-0.267,2.007-0.559,2.207-0.646c0.072-0.035,0.073-0.031,0,0
				c-0.261,0.126-1.471,0.761-3.649,2.45c-4.421,3.429-0.902,1.083,2.345,0.091c3.248-0.992,0.181,0.541-0.992,1.623
				c-1.173,1.083,2.526-1.624,7.126-1.714c4.6-0.09-1.894,0.993-4.15,2.616c-2.255,1.624,0.542-0.091,2.796-0.181
				c2.255-0.09-2.976,1.714-4.33,3.248c-1.353,1.533,3.789-1.444,8.84-1.624c5.051-0.18-3.608,2.165-4.871,2.797
				c-0.053,0.026-0.088,0.043-0.127,0.061c0.6-0.239,2.619-0.896,4.817-0.332c3.157,0.813,3.428,0.632,0,1.264
				c-3.428,0.631,1.714-0.271,4.961,2.436c3.247,2.705-0.722,0.36-5.773,1.533c-5.051,1.172,1.534-0.271,3.699,1.172
				c2.165,1.444-0.452,0.813-4.961,1.083c-4.51,0.271-0.271-0.09,2.346,0.992c2.616,1.083,1.172,1.443-4.601,1.443
				c-5.773,0-8.931,0.271-5.683,0.541c3.248,0.271,14.613,2.165,6.585,2.526c-3.505,0.157-3.175,1.054-1.654,2.015
				c11.363-0.772,14.044-4.361,15.185-7.608C80.574,34.197,78.409,31.582,77.868,28.875z"/>
		</g>
		<g>
			<path fill="#FAD7D8" stroke="#DB5C6C" stroke-width="0.2706" stroke-linecap="round" stroke-linejoin="round" d="M29.608,64.957
				c0,0-5.954,10.103-13.711,10.554C8.14,75.961,0.653,70.459,4.17,62.701c0.902-2.345,1.173-1.714-0.541-2.615
				c-1.714-0.902-1.804-1.354-1.172-2.616c0.631-1.263,0-0.992-1.443-1.624c-1.443-0.631-1.263-4.6,1.714-10.013
				c1.777-3.23,5.082-5.69,8.502-6.927c5.57-2.013,12.321-0.568,17.454,2.03c2.992,1.515,7.464,4.2,8.343,7.72
				c0.599,2.396-0.024,4.94-1.104,7.1C34.389,58.822,29.608,64.957,29.608,64.957z"/>
			<g>
				<path fill="#F1A2B3" d="M24.286,70.551c-1.624,1.895-7.216,4.33-4.149,1.984c3.067-2.346,4.42-7.848,2.887-5.502
					c-1.533,2.346-3.788,3.697-2.616,1.713c1.172-1.984,0.451-3.156-0.181-2.345c-0.631,0.812-4.42,4.06-2.345,0.541
					c2.075-3.518,1.443-4.239-0.722-2.796c-2.165,1.442-4.149,3.337-1.894-0.451c2.255-3.789-7.127,0.901-3.608-1.264
					c3.518-2.164,2.074-3.879-2.165-1.173c-4.239,2.706-3.157,0.452,0.451-1.353c3.608-1.805,8.299-5.412,5.773-4.69
					c-2.525,0.722-2.255,0.09-0.451-1.624c1.804-1.713-7.938,0.181-5.413-1.082c2.526-1.264,6.495-3.518,3.338-2.525
					c-3.157,0.992-7.397,1.623-5.052,0c2.346-1.624,5.954-4.06,4.33-3.518c-1.623,0.541-6.314,3.247-4.961,0.45
					c1.353-2.796,6.765-2.706,3.067-2.525c-3.698,0.181,4.961-1.984-0.631-1.895c-2.084,0.034-2.464-0.823-2.121-1.91
					c-2.091,1.329-3.925,3.119-5.095,5.246c-2.977,5.412-3.157,9.382-1.714,10.013c1.443,0.632,2.075,0.361,1.443,1.624
					c-0.631,1.263-0.541,1.714,1.172,2.616c1.714,0.901,1.443,0.271,0.541,2.615c-3.518,7.758,3.969,13.26,11.727,12.81
					c3.361-0.195,6.383-2.204,8.729-4.416C24.964,70.215,24.954,69.77,24.286,70.551z"/>
			</g>
			<g opacity="0.52">
				<path fill="#F1A2B3" d="M37.026,48.656c-0.879-3.52-5.351-6.205-8.343-7.72c-0.657-0.332-8.294-2.75-8.998-3.04
					c1.221,0.503,6.402,2.766,7.216,3.789c1.549,1.945-4.05,2.835-5.575,4.003c-0.869,0.665-1.735,1.334-2.522,2.095
					c-0.775,0.75-1.375,1.903-2.186,2.562c1.443-1.173,5.593-4.961,12.629-4.69c7.036,0.271-1.263,0.271-3.518,2.165
					c-2.255,1.895,0.541-1.173,4.691-0.361c4.149,0.812-3.608,2.616-4.781,5.503c0.541,0.09,3.519-2.977,7.307-2.977
					c3.789,0-1.985,4.69-4.06,11.005c-1.088,3.314-2.401,6.801-3.598,9.458c2.679-2.709,4.32-5.49,4.32-5.49
					s4.781-6.135,6.314-9.201C37.002,53.596,37.624,51.053,37.026,48.656z"/>
			</g>
			<g>
				<path fill="#EB7598" d="M37.366,49.443c0,0-5.232-1.173-11.366,2.886c0,0,3.967-4.956,11.004-3.518
					C37.186,48.987,37.366,49.443,37.366,49.443z"/>
				<path fill="#EB7598" d="M36.554,47.278c0,0-9.832-3.879-18.672,2.074c0.451-0.812,8.75-6.765,18.041-2.706
					C36.013,46.376,36.554,47.278,36.554,47.278z"/>
			</g>
		</g>
		<path fill="#FBE2DF" stroke="#DB5C6C" stroke-width="0.2706" stroke-linecap="round" stroke-linejoin="round" d="M41.696,50.614
			c0,0,3.157-9.923,20.296-9.923c17.139,0,22.01,6.766,20.115,9.201c-1.894,2.436,0.813,3.067-1.172,4.42
			c-1.985,1.354,0.18,2.165,0.271,4.961c0.09,2.797-3.969,11.005-13.17,10.464C58.834,69.196,41.696,56.297,41.696,50.614z"/>
		<g>
			<path opacity="0.37" fill="#F1A2B3" d="M58.924,61.981c-3.428-5.864-5.051-6.766-8.66-10.193
				c-2.009-1.908,0.987-0.713,3.461,0.441c-2.723-1.475-5.049-3.095-2.83-3.237c2.797-0.182,5.593,0.992,0.992-0.813
				c-4.601-1.805,2.797-1.352,2.165-1.442c-8.93-1.714-3.608-2.706,1.083-4.06c7.042-2.33,14.206-1.551,18.924-0.511
				c-3.058-0.888-7.029-1.476-12.068-1.476c-17.139,0-20.296,9.923-20.296,9.923c0,5.683,17.139,18.582,26.339,19.123
				c1.074,0.064,2.074,0.003,3.009-0.149C65.95,68.618,60.892,65.345,58.924,61.981z"/>
		</g>
		<g>
			<path fill="#FBE2DF" stroke="#DB5C6C" stroke-width="0.2706" stroke-linecap="round" stroke-linejoin="round" d="M31.413,57.019
				c0,0,4.239-7.487,7.938-7.578c2.165-0.902,10.103,1.082,16.508,10.464c4.42,7.577,3.427,18.581-1.534,18.491
				c-4.961-0.09-4.33-0.991-5.413,0.452c-1.082,1.442-3.608-0.362-4.42,0.901c-0.812,1.264-1.894,0.542-3.608,0.181
				c-1.714-0.36-0.993,0.451-1.985,1.624c-0.992,1.172-11.365,0.991-11.726-6.676C26.812,67.212,29.247,60.717,31.413,57.019z"/>
			<path opacity="0.81" fill="#E8588A" d="M39.982,49.443c0,0-1.624,10.554,1.804,16.958c-0.722-1.083-4.651-5.257-2.1-17.196
				C39.891,49.082,39.982,49.443,39.982,49.443z"/>
			<g opacity="0.87">
				<path fill="#F1A2B3" d="M56.128,63.604c1.263,3.879,2.345,11.366-1.083,2.978c-3.428-8.39-7.396-10.104-4.51-7.217
					c2.886,2.887,4.601,12.538,3.338,9.11c-1.263-3.428-3.428-5.321-2.075-1.624c1.353,3.699,0,7.397-1.534,2.075
					c-1.534-5.322-5.863-9.562-3.067-4.239c2.796,5.322,2.255,8.118,1.263,4.42c-0.992-3.698-2.976-5.953-1.894-1.354
					c1.083,4.601,0.361,6.404-0.361,3.698c-0.722-2.706-1.353-2.345-1.173-0.18c0.181,2.165,0.181,4.329-0.451,1.442
					c-0.631-2.887-3.427-7.848-2.436-4.239c0.992,3.608,0.451,8.209-0.541,5.412c-0.992-2.796-2.616-6.675-2.525-2.886
					c0.09,3.788-0.722,5.592-1.083,2.615c-0.361-2.977-1.263-1.895-1.172,0c0.09,1.895,0,2.165-1.805-1.623
					c-1.804-3.789-0.271,3.607-4.149,2.345c-2.137-0.696-2.958-3.827-3.267-6.501c-0.367,2.188-0.548,4.551-0.431,7.041
					c0.361,7.667,10.734,7.848,11.726,6.676c0.992-1.173,0.271-1.984,1.985-1.624c1.714,0.361,2.796,1.083,3.608-0.181
					c0.812-1.264,3.338,0.541,4.42-0.901c1.083-1.443,0.451-0.542,5.413-0.452c4.01,0.073,5.425-7.103,3.487-13.857
					C56.387,60.967,54.972,60.053,56.128,63.604z"/>
			</g>
			<g opacity="0.37">
				<path fill="#F1A2B3" d="M36.193,59.094c0.451-1.172,0.992-7.216,2.345-0.901c1.353,6.314,3.247,7.487,3.247,7.487
					s-3.518-6.585-1.533-11.095c1.984-4.511,2.616,2.705,1.894,6.403c-0.722,3.699,2.255-5.412,0.09-9.381
					c-1.672-3.066,5.104-0.104,9.439,3.316c-5.31-5.104-10.617-6.194-12.326-5.482c-3.698,0.091-7.938,7.578-7.938,7.578
					c-0.932,1.591-1.912,3.701-2.699,6.197C31.348,57.722,35.522,50.618,36.193,59.094z"/>
			</g>
			<path fill="#ED84A1" d="M40.162,49.194c0,0,3.519,4.194,2.301,8.998C43.883,54.877,42.327,50.615,40.162,49.194z"/>
			<path fill="#E8588A" d="M39.35,49.441c0,0-3.789,6.496-3.247,14.434c-0.181-0.541-1.354-6.945,2.886-14.432
				C39.44,49.352,39.35,49.441,39.35,49.441z"/>
		</g>
		<g opacity="0.87">
			<path fill="#F1A2B3" d="M73.103,41.907c1.902,1.05,4.067,2.435,3.862,3.206c-0.361,1.354-0.632-0.541-3.157-0.271
				c-2.526,0.271,1.353,1.442,2.075,1.984c0.722,0.541,1.443,0.09-3.337,0.36c-4.781,0.271,1.263,0.451,2.886,1.533
				c1.624,1.083-4.33-0.09-2.796,0.813c1.534,0.902-0.181,1.173-3.428,1.173s4.42,2.706,5.232,3.247
				c0.812,0.541-7.848-2.165-10.734-1.533c-2.886,0.631,1.624,0.271,4.42,1.623c2.796,1.354-3.427,0.181-3.427,0.181
				s5.502,2.706,7.126,4.059c1.623,1.353-2.436,0-4.24,0.09c-1.804,0.09-1.172,0,2.165,2.436c3.337,2.436-0.09,1.804-3.248,0.36
				c-3.157-1.442-1.353,1.444,1.443,2.888c2.796,1.442-0.631,1.533-4.059-0.813c-3.428-2.346-0.361,0.813,2.886,2.616
				c3.248,1.804,2.616,2.436,0.181,1.443c-1.602-0.653-2.656,0.567-0.935,2.146c0.704,0.149,1.381,0.251,2.017,0.288
				c9.201,0.541,13.26-7.667,13.17-10.464c-0.09-2.796-2.255-3.607-0.271-4.961c1.985-1.353-0.722-1.984,1.172-4.42
				C83.5,48.1,81.225,43.969,73.103,41.907z"/>
		</g>
		<path opacity="0.74" fill="#F1A2B3" d="M31.412,42.588c-0.244-0.149,4.149,3.518-0.18,3.066c4.059-0.09,4.42,2.346,0.901,3.698
			c2.165,0.181,3.699,1.082,2.887,2.616c0.361-0.181,2.165-2.075,2.165-2.075S37.456,46.285,31.412,42.588z"/>
		<path fill="#ED84A1" d="M43.489,47.794c0,0,5.772-2.706,13.981,0.09C56.387,46.982,47.548,44.095,43.489,47.794z"/>
		<path fill="#ED84A1" d="M42.371,49.144c0,0,4.409-1.25,9.907,1.685C51.615,50.063,45.679,46.992,42.371,49.144z"/>
	</g>
	<g>
		<g>
			<path fill="#F9D0D3" stroke="#DB5C6C" stroke-width="0.2706" stroke-linecap="round" stroke-linejoin="round" d="M113.824,34.318
				c0,0-4.561-11.883-6.694-15.285c-2.133-3.403-1.767-13.257,2.736-15.818c4.503-2.561,6.488-4.017,8.219-2.4
				c1.73,1.615,1.492-1.891,3.845,0.519c2.354,2.41,1.662-3.304,4.926,0.134c1.975,1.731,4.189-2.111,5.732,0.115
				c1.542,2.225,1.59-1.045,8.317,2.034c6.726,3.079,11.684,10.11,3.292,15.623c-8.392,5.513-18.132,22.958-23.282,21.822
				C115.764,39.925,115.926,38.104,113.824,34.318z"/>
			<path fill="#ED84A1" d="M120.747,31.703c0,0,0.771-14.301,5.197-20.291c-0.912,0.666-5.731,8.965-5.88,20.468
				C120.476,32.274,120.747,31.703,120.747,31.703z"/>
			<path fill="#ED84A1" d="M118.748,32.554c0,0-1.911-11.579,0.05-15.939c-0.243,1.781-0.786,13.696,0.757,15.922
				C119.329,33.228,118.748,32.554,118.748,32.554z"/>
			<g opacity="0.38">
				<path fill="#F1A2B3" d="M140.651,17.664c-3.796,1.697-8.315,5.349-10.479,7.818c-2.165,2.469,2.165-6.061-1.568-1.539
					c-3.732,4.521-4.916,5.758-4.954,2.248c-0.038-3.51-0.546-6.443-2.092-3.383c-1.546,3.061-3.408-0.813-3.396-2.104
					c-0.53,7.032-2.736,5.79-3.297,2.333c-2.756,2.458-6.477-3.032-8.806-7.319c0.203,1.344,0.565,2.51,1.07,3.314
					c2.133,3.402,6.694,15.285,6.694,15.285c2.102,3.786,1.94,5.606,7.09,6.743c5.15,1.136,14.891-16.31,23.282-21.822
					c3.008-1.977,4.295-4.147,4.404-6.263C146.622,14.893,143.275,16.489,140.651,17.664z"/>
			</g>
			<path fill="#ED84A1" d="M117.478,31.655c0,0-3.259-6.827-2.859-10.63c0.242,1.811,1.638,8.357,3.551,10.857
				C118.456,32.117,117.478,31.655,117.478,31.655z"/>
			<g>
				<path fill="#F1A2B3" d="M108.087,10.356c0.06,4.518,1.228,9.858,1.013,5.667c-0.213-4.191-0.126-7.543,0.468-4.368
					c0.595,3.175-0.547,6.226,1.89,1.491c2.437-4.734,2.29-5.902,2.101-1.701c-0.189,4.201,0.775,4.059,1.935-0.083
					c0.997-3.56,1.495,0.016,1.445,2.657c0.241-1.344,0.724-3.235,1.607-5.106c2.043-4.323,1.238-2.408,1.164,1.548
					c-0.073,3.956-0.76,3.931,1.402-0.435c2.163-4.365,0.204,1.892-0.137,4.724c-0.34,2.832,0.199-3.798,3.642-6.859
					c3.442-3.063,2.414-0.255,1.798,1.05c-0.616,1.305,0.559,1.561,1.999-0.851c1.439-2.413,0.315,1.445-1.137,5.149
					c-1.451,3.704,1.776,0.041,4.159-3.521c2.381-3.564-0.742,1.145-2.051,5.815c-1.309,4.669-0.941,3.047,3.453-2.659
					c4.392-5.706,4.85-6.887,3.116-3.216c-1.735,3.67-3.976,6.302-0.898,3.166c3.077-3.135,4.081-3.358,2.853-0.547
					c-1.229,2.811-1.675,2.7,1.665,0.487c3.341-2.213,2.586-1.671,1.258,0.295c-1.328,1.967-1.093,1.679,1.634-0.924
					c2.727-2.603,0.743,0.75-0.642,1.992c-1.385,1.241,4.152-2.029,2.857-0.347c-1.096,1.425,0.864-0.283,3.916-0.723
					c0.254-3.814-3.347-7.453-7.692-9.442c-6.728-3.079-6.775,0.191-8.317-2.034c-1.543-2.227-3.758,1.616-5.732-0.115
					c-3.264-3.438-2.572,2.276-4.926-0.134c-2.353-2.409-2.114,1.097-3.845-0.519c-1.73-1.616-3.716-0.16-8.219,2.4
					c-2.981,1.696-4.148,6.586-3.978,10.685C106.776,11.018,108.049,7.421,108.087,10.356z"/>
			</g>
			<path opacity="0.74" fill="#F1A2B3" d="M113.657,26.756c0,0,2.167,0.8,2.834,2.237c0.667,1.438,0.122,0.058,0.214-1.245
				c0.092-1.304,0.652-0.59,0.988,0.916c0.336,1.506,0.03-0.062,0.363-1.4s0.477,1.049,0.99,2.339
				c0.513,1.29,1.181,0.034,1.857-2.191c0.678-2.224-0.027,1.484,0.424,2.745c0.452,1.261,3.157,0.444,5.419-1.33
				c2.26-1.775,1.82-1.161,0.663,1.286c-1.157,2.446-2.302,2.653-2.928,4.453c-0.626,1.799-4.074,0.329-4.632,0.51
				c-0.558,0.18-3.298-1.938-3.671-2.414C115.804,32.186,112.401,26.088,113.657,26.756z"/>
		</g>
		<path fill="#F9D0D3" stroke="#DB5C6C" stroke-width="0.2706" stroke-linecap="round" stroke-linejoin="round" d="M123.789,36.033
			c0,0,7.94-16.801,21.69-19.083c12.062-1.882,14.633,3.024,13.9,4.574c-0.732,1.55-1.093,1.679,1.053,1.994
			c2.146,0.315,1.323,1.423,0.856,2.2c-0.467,0.777,1.304,0.616,0.207,2.094c-1.096,1.478,0.654,2.205,1.771,3.432
			c1.116,1.226-0.32,1.943-0.987,4.622c-0.667,2.677,0.172,5.967-2.314,8.483c-2.486,2.517-6.594,4.666-17.874,0.033
			C130.813,39.751,121.704,40.236,123.789,36.033z"/>
		<path fill="#ED84A1" d="M126.533,34.238c0,0,9.19-9.524,19.327-7.329c-1.918-1.006-13.528,1.39-19.381,8.5
			C126.507,34.925,126.533,34.238,126.533,34.238z"/>
		<path fill="#ED84A1" d="M124.47,35.857c0,0,12.328-4.551,20.538-1.868c-2.125-1.203-8.26-2.795-20.555,1.268
			C123.877,34.579,124.47,35.857,124.47,35.857z"/>
		<g>
			<path opacity="0.37" fill="#F1A2B3" d="M134.809,34.458c1.113-1.237,3.509-1.312,5.063-1.193
				c-1.449-0.283-3.168-0.828-1.817-1.662c1.028-0.635,3.521-0.577,4.758-0.495c-0.19-0.021-0.419-0.047-0.696-0.08
				c-4.249-0.512-8.084-0.628-6.108-2.487c1.977-1.859,9.696-1.305,5.247-1.811c-6.312-0.788-12.77,4.641-8.723-0.331
				c3.82-5.281,11.241-8.328,15.802-9.782c-0.888,0.068-1.836,0.175-2.856,0.334c-13.75,2.282-21.69,19.083-21.69,19.083
				c-2.085,4.203,7.024,3.718,18.302,8.35c6.273,2.576,10.326,3.054,13.118,2.539c-1.291-0.952-3.036-2.299-5.487-4.119
				C141.968,37.043,132.919,36.557,134.809,34.458z"/>
		</g>
		<path opacity="0.74" fill="#F1A2B3" d="M130.04,26.816c0,0-3.92,5.131-0.51,4.248c3.41-0.883,3.031-1.561,1.013,0.18
			c-2.02,1.739-0.618,1.305,2.806,1.026c3.424-0.276,3.682,0.443,0.349,1.163c-3.333,0.719-4.286,1.467-1.251,1.804
			c3.033,0.336,5.047,1.985,1.769,1.534c-3.278-0.452-8.949,0.359-9.709,0.699C123.747,37.81,123.821,33.854,130.04,26.816z"/>
		<g>
			
				<ellipse transform="matrix(-0.8175 -0.576 0.576 -0.8175 201.4859 130.5073)" fill="#FFE01F" stroke="#F39600" stroke-width="0.2706" stroke-linecap="round" stroke-linejoin="round" cx="121.423" cy="33.326" rx="2.014" ry="2.208"/>
			<path fill="#FFE01F" d="M122.37,32.992c-1.519-1.932-3.783,1.712-2.048-1.373c-0.202,0.148-0.39,0.327-0.545,0.547
				c-0.702,0.997-0.535,2.323,0.375,2.965c0.909,0.641,2.216,0.352,2.918-0.645c0.047-0.069,0.081-0.143,0.122-0.214
				C122.475,34.798,123.204,34.052,122.37,32.992z"/>
		</g>
		<g>
			
				<ellipse transform="matrix(-0.5972 -0.8021 0.8021 -0.5972 170.5043 156.1318)" fill="#FFE01F" stroke="#F39600" stroke-width="0.2706" stroke-linecap="round" stroke-linejoin="round" cx="124.453" cy="35.256" rx="2.003" ry="2.197"/>
			<path fill="#FFE01F" d="M125.453,35.234c-0.838-2.297-4.108,0.446-1.511-1.932c-0.238,0.076-0.471,0.188-0.685,0.347
				c-0.973,0.725-1.226,2.031-0.564,2.919c0.662,0.889,1.986,1.02,2.957,0.295c0.068-0.051,0.122-0.109,0.182-0.163
				C124.992,36.973,125.912,36.495,125.453,35.234z"/>
		</g>
		<g>
			
				<ellipse transform="matrix(-0.8174 -0.576 0.576 -0.8174 194.4884 127.8321)" fill="#FFE01F" stroke="#F39600" stroke-width="0.2706" stroke-linecap="round" stroke-linejoin="round" cx="117.501" cy="33.096" rx="2.029" ry="2.225"/>
			<path fill="#FFE01F" d="M118.456,32.76c-1.532-1.945-3.812,1.725-2.064-1.382c-0.204,0.148-0.393,0.328-0.549,0.55
				c-0.706,1.005-0.538,2.341,0.378,2.986c0.916,0.646,2.232,0.354,2.938-0.649c0.05-0.069,0.083-0.143,0.124-0.215
				C118.561,34.579,119.295,33.827,118.456,32.76z"/>
		</g>
		<g>
			
				<ellipse transform="matrix(-0.8173 -0.5762 0.5762 -0.8173 197.5983 132.7973)" fill="#FFE01F" stroke="#F39600" stroke-width="0.2706" stroke-linecap="round" stroke-linejoin="round" cx="119.85" cy="35.076" rx="2.264" ry="2.483"/>
			<path fill="#FFE01F" d="M120.914,34.701c-1.709-2.173-4.255,1.925-2.304-1.543c-0.229,0.165-0.438,0.367-0.612,0.613
				c-0.79,1.122-0.602,2.613,0.421,3.334c1.022,0.722,2.492,0.396,3.28-0.725c0.055-0.077,0.093-0.16,0.138-0.24
				C121.033,36.731,121.853,35.892,120.914,34.701z"/>
		</g>
		<g>
			
				<ellipse transform="matrix(-0.8173 -0.5762 0.5762 -0.8173 202.8278 139.297)" fill="#FFE01F" stroke="#F39600" stroke-width="0.2706" stroke-linecap="round" stroke-linejoin="round" cx="123.495" cy="37.497" rx="2.264" ry="2.483"/>
			<path fill="#FFE01F" d="M124.559,37.122c-1.708-2.173-4.255,1.925-2.303-1.544c-0.229,0.166-0.439,0.367-0.612,0.614
				c-0.79,1.122-0.602,2.613,0.421,3.335c1.022,0.721,2.492,0.396,3.28-0.726c0.055-0.077,0.093-0.16,0.137-0.24
				C124.677,39.152,125.497,38.313,124.559,37.122z"/>
		</g>
		<g>
			
				<ellipse transform="matrix(-0.8174 -0.5761 0.5761 -0.8174 191.933 134.0961)" fill="#FFE01F" stroke="#F39600" stroke-width="0.2706" stroke-linecap="round" stroke-linejoin="round" cx="117.221" cy="36.627" rx="2.265" ry="2.483"/>
			<path fill="#FFE01F" d="M118.287,36.252c-1.71-2.172-4.256,1.926-2.304-1.543c-0.229,0.166-0.44,0.367-0.613,0.613
				c-0.789,1.122-0.601,2.614,0.422,3.336c1.023,0.721,2.492,0.395,3.28-0.726c0.055-0.077,0.093-0.158,0.138-0.239
				C118.404,38.283,119.224,37.444,118.287,36.252z"/>
		</g>
		<g>
			
				<ellipse transform="matrix(-0.8175 -0.5759 0.5759 -0.8175 198.267 140.1734)" fill="#FFE01F" stroke="#F39600" stroke-width="0.2706" stroke-linecap="round" stroke-linejoin="round" cx="121.342" cy="38.674" rx="2.265" ry="2.483"/>
			<path fill="#FFE01F" d="M122.407,38.299c-1.709-2.172-4.255,1.927-2.303-1.543c-0.228,0.167-0.44,0.367-0.613,0.614
				c-0.79,1.122-0.602,2.613,0.421,3.335c1.023,0.721,2.492,0.396,3.281-0.727c0.055-0.076,0.092-0.158,0.137-0.239
				C122.525,40.33,123.344,39.492,122.407,38.299z"/>
		</g>
		<g>
			<path fill="none" d="M95.985,51.327c-0.215,0.068-0.431,0.135-0.65,0.197C95.558,51.467,95.774,51.399,95.985,51.327z"/>
			<path fill="#F1A2B3" stroke="#DC6C8E" stroke-width="0.2706" stroke-linecap="round" stroke-linejoin="round" d="M91.938,52.208
				c1.158-0.12,2.304-0.367,3.397-0.683c-0.228,0.06-0.454,0.122-0.695,0.167C93.69,51.866,92.788,52.04,91.938,52.208z"/>
		</g>
		<g>
			<path fill="#F1A2B3" d="M162.28,35.866c0.667-2.679,2.104-3.396,0.987-4.622c-1.117-1.227-2.868-1.954-1.771-3.432
				c1.097-1.477-0.674-1.316-0.207-2.094c0.467-0.777,1.29-1.885-0.856-2.2c-2.146-0.315-1.785-0.444-1.053-1.994
				c0.732-1.55-1.838-6.456-13.9-4.574c-0.513,0.086-1.015,0.197-1.512,0.32c-0.798,0.316-1.505,0.656-2.011,1.01
				c-2.385,1.667,9.429-0.532,6.942,0.089c-2.488,0.619-9.289,1.496-5.817,1.541c3.471,0.044,5.703,0.6,3.969,0.678
				c-1.733,0.079-1.935,0.084,1.473,0.896c1.264,0.301,2.053,0.351,2.271,0.357c0.079,0,0.079,0.003,0,0
				c-0.29,0.002-1.654,0.061-4.347,0.656c-5.461,1.211-1.278,0.594,2.082,1.084c3.36,0.49-0.068,0.566-1.591,1.044
				c-1.522,0.478,2.978-0.389,7.175,1.495c4.198,1.885-2.136,0.088-4.869,0.593c-2.732,0.504,0.528,0.149,2.606,1.031
				c2.076,0.882-3.424,0.277-5.303,1.086c-1.878,0.809,4.042,0.313,8.687,2.309c4.644,1.996-4.188,0.417-5.6,0.448
				c-0.058,0.001-0.099,0-0.141,0.001c0.645,0.039,2.751,0.308,4.498,1.758c2.507,2.083,2.829,2.035-0.54,1.142
				c-3.369-0.894,1.665,0.487,3.445,4.321c1.78,3.834-0.807,0.019-5.874-1.079c-5.068-1.099,1.502,0.41,2.843,2.64
				c1.34,2.23-0.755,0.541-4.948-1.141c-4.193-1.683-0.206-0.197,1.696,1.899c1.903,2.096,0.443,1.806-4.775-0.661
				c-5.22-2.467-8.19-3.571-5.37-1.939c2.821,1.633,12.287,8.202,4.874,5.098c-3.235-1.355-3.321-0.403-2.357,1.115
				c10.604,4.155,14.562,2.058,16.98-0.392C162.452,41.833,161.613,38.543,162.28,35.866z"/>
		</g>
		<g>
			<path fill="#FAD7D8" stroke="#DB5C6C" stroke-width="0.2706" stroke-linecap="round" stroke-linejoin="round" d="M103.231,47.868
				c0,0-9.699,6.591-16.905,3.684c-7.207-2.907-11.625-11.081-5.13-16.591c1.818-1.735,1.793-1.049,0.628-2.597
				c-1.164-1.548-1.052-1.994,0.058-2.866c1.111-0.872,0.425-0.896-0.61-2.084c-1.036-1.188,0.823-4.699,5.827-8.32
				c2.987-2.163,7.026-2.975,10.646-2.631c5.896,0.56,11.382,4.751,14.913,9.293c2.059,2.648,4.954,6.986,4.246,10.544
				c-0.483,2.423-2.133,4.456-4.032,5.948C110.174,44.365,103.231,47.868,103.231,47.868z"/>
			<g>
				<path fill="#F1A2B3" d="M96.029,50.652c-2.277,1.019-8.374,0.831-4.6,0.021c3.775-0.811,7.35-5.206,4.961-3.741
					c-2.388,1.466-5.005,1.725-3.097,0.432c1.908-1.293,1.757-2.662,0.838-2.197c-0.917,0.464-5.73,1.781-2.351-0.513
					c3.379-2.294,3.116-3.217,0.542-2.837c-2.574,0.379-5.178,1.245-1.521-1.217c3.658-2.462-6.828-2.229-2.722-2.684
					c4.106-0.455,3.533-2.621-1.457-1.985c-4.989,0.635-3.047-0.941,0.986-1.031c4.033-0.09,9.816-1.348,7.224-1.774
					c-2.592-0.427-2.078-0.883,0.286-1.661c2.363-0.778-7.254-3.229-4.431-3.291c2.823-0.063,7.376-0.406,4.097-0.858
					c-3.278-0.451-7.381-1.692-4.567-2.158c2.814-0.466,7.117-1.126,5.418-1.331c-1.7-0.204-7.097,0.238-4.678-1.712
					c2.418-1.95,7.272,0.444,3.852-0.974c-3.421-1.416,5.334,0.326,0.238-1.981c-1.899-0.861-1.876-1.797-1.101-2.634
					c-2.459,0.309-4.882,1.143-6.849,2.567c-5.004,3.621-6.863,7.132-5.827,8.32c1.035,1.188,1.721,1.212,0.61,2.084
					c-1.11,0.872-1.222,1.318-0.058,2.866c1.165,1.548,1.19,0.861-0.628,2.597c-6.495,5.51-2.077,13.684,5.13,16.591
					c3.122,1.26,6.712,0.735,9.779-0.263C96.786,50.638,96.966,50.232,96.029,50.652z"/>
			</g>
			<g opacity="0.52">
				<path fill="#F1A2B3" d="M116.903,36.3c0.708-3.558-2.187-7.896-4.246-10.544c-0.452-0.581-6.324-6.03-6.836-6.593
					c0.889,0.976,4.607,5.235,4.906,6.509c0.569,2.421-4.873,0.832-6.75,1.236c-1.07,0.23-2.139,0.466-3.176,0.817
					c-1.021,0.346-2.056,1.132-3.071,1.382c1.806-0.443,7.177-2.096,13.422,1.155c6.246,3.25-1.257-0.295-4.106,0.454
					c-2.848,0.748,0.99-0.83,4.396,1.677c3.404,2.507-4.38,0.824-6.674,2.934c0.451,0.312,4.453-1.188,7.878,0.43
					c3.426,1.619-3.798,3.393-8.372,8.216c-2.401,2.531-5.077,5.123-7.295,7.014c3.58-1.305,6.252-3.118,6.252-3.118
					s6.943-3.503,9.64-5.62C114.77,40.756,116.419,38.722,116.903,36.3z"/>
			</g>
			<g>
				<path fill="#EB7598" d="M116.873,37.156c0,0-4.229-3.296-11.509-2.246c0,0,5.705-2.786,11.452,1.521
					C116.906,36.667,116.873,37.156,116.873,37.156z"/>
				<path fill="#EB7598" d="M117.064,34.852c0,0-7.232-7.709-17.769-6.103c0.755-0.541,10.802-2.379,17.468,5.262
					C116.961,33.804,117.064,34.852,117.064,34.852z"/>
			</g>
		</g>
		<path fill="#FBE2DF" stroke="#DB5C6C" stroke-width="0.2706" stroke-linecap="round" stroke-linejoin="round" d="M120.288,40.065
			c0,0,7.094-7.622,22.59-0.3c15.496,7.322,17.008,15.521,14.256,16.913c-2.754,1.394-0.576,3.12-2.949,3.496
			c-2.372,0.375-0.761,2.034-1.875,4.602c-1.114,2.566-8.29,8.253-16.378,3.833C127.843,64.188,117.859,45.203,120.288,40.065z"/>
		<g>
			<path opacity="0.37" fill="#F1A2B3" d="M131.007,57.703c-0.593-6.766-1.676-8.275-3.474-12.916
				c-1.001-2.583,1.197-0.223,2.941,1.879c-1.832-2.497-3.243-4.955-1.174-4.137c2.605,1.031,4.631,3.287,1.243-0.311
				c-3.389-3.597,3.107-0.027,2.574-0.379c-7.342-5.365-2.106-3.988,2.712-3.208c7.364,0.902,13.508,4.667,17.329,7.624
				c-2.386-2.108-5.726-4.337-10.281-6.49c-15.496-7.322-22.59,0.3-22.59,0.3c-2.428,5.138,7.556,24.123,15.643,28.544
				c0.944,0.516,1.874,0.889,2.784,1.15C134.523,66.706,131.349,61.587,131.007,57.703z"/>
		</g>
		<g>
			<path fill="#FBE2DF" stroke="#DB5C6C" stroke-width="0.2706" stroke-linecap="round" stroke-linejoin="round" d="M108.254,41.462
				c0,0,7.032-4.958,10.414-3.459c2.342,0.109,8.672,5.295,10.454,16.513c0.759,8.74-4.839,18.266-9.287,16.064
				c-4.447-2.201-3.492-2.746-5.086-1.904c-1.595,0.842-3.108-1.869-4.382-1.073c-1.274,0.795-1.943-0.319-3.339-1.378
				c-1.396-1.059-1.09-0.017-2.488,0.62c-1.398,0.636-10.7-3.96-7.75-11.047C99.739,48.713,104.716,43.881,108.254,41.462z"/>
			<path opacity="0.81" fill="#E8588A" d="M119.239,38.273c0,0-5.979,8.849-5.615,16.103c-0.189-1.287-1.959-6.739,5.448-16.445
				C119.311,37.909,119.239,38.273,119.239,38.273z"/>
			<g opacity="0.87">
				<path fill="#F1A2B3" d="M127.787,57.976c-0.516,4.047-2.736,11.278-2.251,2.229c0.484-9.05-2.371-12.295-0.996-8.452
					c1.378,3.844-1.198,13.302-0.874,9.664c0.322-3.64-0.826-6.277-1.182-2.355c-0.357,3.922-3.16,6.688-2.273,1.221
					c0.888-5.467-1.215-11.15-0.961-5.143s-1.43,8.304-0.746,4.536c0.683-3.768-0.148-6.654-1.135-2.032
					c-0.987,4.622-2.411,5.944-1.907,3.188c0.504-2.755-0.221-2.697-0.983-0.663c-0.762,2.034-1.686,3.992-1.025,1.111
					c0.663-2.88,0.255-8.56-0.391-4.873c-0.644,3.686-3.099,7.614-2.802,4.661c0.298-2.952,0.488-7.151-1.05-3.688
					c-1.538,3.464-3.042,4.748-2.096,1.902c0.946-2.845-0.332-2.252-1.06-0.501c-0.728,1.752-0.925,1.958-0.938-2.238
					c-0.013-4.196-1.787,3.146-4.754,0.348c-1.634-1.543-1.039-4.725-0.176-7.274c-1.267,1.82-2.44,3.88-3.398,6.181
					c-2.95,7.087,6.352,11.683,7.75,11.047c1.398-0.637,1.093-1.679,2.488-0.62c1.396,1.059,2.065,2.173,3.339,1.378
					c1.274-0.796,2.787,1.915,4.382,1.073c1.595-0.842,0.639-0.297,5.086,1.904c3.594,1.779,7.94-4.104,9.074-11.04
					C129.148,55.702,128.258,54.271,127.787,57.976z"/>
			</g>
			<g opacity="0.37">
				<path fill="#F1A2B3" d="M111.689,45.382c0.909-0.868,3.98-6.101,2.506,0.187c-1.475,6.287-0.263,8.156-0.263,8.156
					s-0.367-7.457,3.354-10.687c3.721-3.229,1.208,3.563-1.024,6.6c-2.232,3.036,4.352-3.93,4.091-8.443
					c-0.202-3.486,4.657,2.088,7.116,7.031c-2.619-6.883-6.951-10.136-8.801-10.223c-3.382-1.499-10.414,3.459-10.414,3.459
					c-1.522,1.041-3.31,2.53-5.088,4.451C107.895,42.072,114.705,37.431,111.689,45.382z"/>
			</g>
			<path fill="#ED84A1" d="M119.507,38.127c0,0,1.389,5.295-1.764,9.117C120.444,44.854,120.858,40.336,119.507,38.127z"/>
			<path fill="#E8588A" d="M118.668,38.003c0,0-6.201,4.254-9.103,11.662c0.068-0.566,1.744-6.857,8.776-11.815
				C118.788,37.961,118.668,38.003,118.668,38.003z"/>
		</g>
		<g opacity="0.87">
			<path fill="#F1A2B3" d="M152.405,45.613c1.27,1.761,2.636,3.938,2.121,4.548c-0.904,1.069-0.34-0.759-2.739-1.595
				c-2.4-0.834,0.606,1.884,1.027,2.682c0.422,0.798,1.267,0.698-3.171-1.1c-4.438-1.799,0.948,0.947,1.955,2.619
				c1.005,1.672-3.876-1.932-2.875-0.461c1.001,1.472-0.665,0.983-3.601-0.404c-2.936-1.388,2.84,4.336,3.344,5.172
				c0.502,0.836-6.17-5.311-9.051-5.973c-2.88-0.663,1.353,0.938,3.302,3.356c1.951,2.419-3.175-1.302-3.175-1.302
				s3.818,4.798,4.708,6.715c0.89,1.918-2.202-1.04-3.871-1.729c-1.67-0.689-1.061-0.502,0.917,3.127
				c1.977,3.628-0.852,1.592-3.09-1.062c-2.238-2.653-1.84,0.728,0.071,3.227c1.912,2.499-1.226,1.117-3.322-2.469
				c-2.098-3.585-0.673,0.581,1.491,3.599c2.165,3.019,1.325,3.32-0.453,1.383c-1.169-1.274-2.644-0.623-1.762,1.54
				c0.573,0.435,1.142,0.817,1.701,1.123c8.088,4.42,15.264-1.267,16.378-3.833c1.113-2.567-0.497-4.227,1.875-4.602
				c2.373-0.376,0.195-2.103,2.949-3.496C159.159,55.654,158.867,50.945,152.405,45.613z"/>
		</g>
		<path opacity="0.74" fill="#F1A2B3" d="M114.42,28.414c-0.157-0.238,2.248,4.954-1.474,2.696c3.709,1.652,2.994,4.008-0.765,3.729
			c1.88,1.088,2.882,2.558,1.492,3.598c0.403-0.01,2.844-0.951,2.844-0.951S118.303,34.341,114.42,28.414z"/>
		<path fill="#ED84A1" d="M123.114,38.281c0,0,6.375,0.021,12.602,6.056C135.122,43.058,128.364,36.672,123.114,38.281z"/>
		<path fill="#ED84A1" d="M121.526,39.025c0,0,4.52,0.753,8.237,5.756C129.492,43.805,125.437,38.492,121.526,39.025z"/>
	</g>
	<g>
		<g>
			<path fill="#F9D0D3" stroke="#DB5C6C" stroke-width="0.2706" stroke-linecap="round" stroke-linejoin="round" d="M88.14,103.334
				c0,0-0.213-12.727,0.493-16.68c0.706-3.954-3.318-12.955-8.452-13.647c-5.134-0.691-7.519-1.3-8.521,0.846
				c-1.001,2.146-2.09-1.195-3.372,1.919c-1.282,3.115-2.777-2.443-4.519,1.965c-1.184,2.345-4.675-0.391-5.274,2.25
				c-0.599,2.641-1.865-0.374-6.953,4.997c-5.087,5.371-7.056,13.747,2.788,15.722c9.844,1.975,25.401,14.514,29.753,11.533
				C88.436,109.259,87.606,107.631,88.14,103.334z"/>
			<path fill="#ED84A1" d="M80.742,103.497c0,0-6.063-12.976-12.408-16.876c1.096,0.276,8.668,6.171,13.107,16.784
				C81.205,103.926,80.742,103.497,80.742,103.497z"/>
			<path fill="#ED84A1" d="M82.913,103.539c0,0-2.557-11.453-6.006-14.765c0.892,1.562,5.85,12.409,5.252,15.05
				C82.627,104.381,82.913,103.539,82.913,103.539z"/>
			<g opacity="0.38">
				<path fill="#F1A2B3" d="M57.032,97.918c4.155,0.155,9.711,1.852,12.642,3.333c2.931,1.48-4.273-4.812,0.879-2.014
					c5.153,2.799,6.712,3.503,5.435,0.233c-1.277-3.27-1.902-6.181,0.675-3.92c2.579,2.26,2.857-2.027,2.364-3.221
					c3.121,6.324,4.703,4.348,3.93,0.931c3.475,1.25,4.873-5.233,5.43-10.08c0.314,1.322,0.414,2.539,0.247,3.474
					c-0.707,3.953-0.493,16.68-0.493,16.68c-0.534,4.297,0.296,5.925-4.055,8.904c-4.352,2.98-19.909-9.559-29.753-11.533
					c-3.529-0.708-5.534-2.241-6.427-4.162C50.458,97.58,54.159,97.809,57.032,97.918z"/>
			</g>
			<path fill="#ED84A1" d="M83.756,102.23c0,0,0.469-7.551-1.323-10.929c0.452,1.771,1.604,8.363,0.766,11.396
				C83.021,103.024,83.756,102.23,83.756,102.23z"/>
			<g>
				<path fill="#F1A2B3" d="M84.501,78.965c1.634,4.213,2.548,9.603,1.179,5.635c-1.369-3.968-2.703-7.043-2.067-3.876
					c0.635,3.167,2.836,5.569-1.194,2.09c-4.03-3.48-4.331-4.618-2.585-0.793c1.746,3.825,0.798,4.054-1.825,0.646
					c-2.255-2.929-1.38,0.573-0.346,3.005c-0.727-1.156-1.881-2.73-3.401-4.134c-3.511-3.246-2.049-1.771-0.501,1.87
					c1.547,3.642,2.174,3.362-1.463,0.122c-3.639-3.24,0.519,1.83,1.894,4.33c1.375,2.499-1.604-3.448-5.942-5.001
					c-4.337-1.553-2.335,0.666-1.276,1.646c1.061,0.98,0.065,1.657-2.172-0.042c-2.237-1.7,0.249,1.459,2.979,4.352
					c2.731,2.893-1.632,0.702-5.174-1.712c-3.542-2.414,1.116,0.785,4.076,4.627c2.959,3.841,2.012,2.475-4.196-1.175
					c-6.207-3.65-7.073-4.574-4.092-1.818c2.981,2.755,6.043,4.358,2.017,2.601c-4.026-1.757-5.041-1.589-2.851,0.559
					c2.191,2.148,2.563,1.879-1.362,1.075c-3.926-0.803-3.023-0.583-1.056,0.744c1.967,1.326,1.641,1.148-1.861-0.246
					c-3.502-1.395-0.409,0.974,1.34,1.606c1.749,0.634-4.609-0.329-2.78,0.748c1.55,0.911-0.907,0.061-3.902,0.793
					c-1.662-3.441,0.317-8.163,3.604-11.634c5.087-5.371,6.354-2.356,6.953-4.997c0.599-2.641,4.09,0.095,5.274-2.25
					c1.742-4.408,3.237,1.15,4.519-1.965c1.282-3.114,2.371,0.227,3.372-1.919c1.002-2.146,3.387-1.537,8.521-0.846
					c3.398,0.458,6.309,4.557,7.684,8.423C85.966,79.089,83.439,76.228,84.501,78.965z"/>
			</g>
			<path opacity="0.74" fill="#F1A2B3" d="M85.468,96.258c0,0-1.71,1.552-1.792,3.135c-0.081,1.582-0.092,0.099-0.665-1.075
				c-0.572-1.175-0.825-0.303-0.574,1.219c0.251,1.523-0.05-0.046-0.859-1.162c-0.81-1.118-0.05,1.15-0.044,2.538
				c0.007,1.389-1.082,0.474-2.541-1.336c-1.46-1.811,0.58,1.365,0.633,2.704c0.053,1.339-2.763,1.593-5.522,0.792
				c-2.76-0.801-2.122-0.396-0.135,1.441c1.987,1.836,3.127,1.6,4.38,3.035c1.253,1.434,3.902-1.218,4.487-1.26
				c0.585-0.041,2.334-3.029,2.503-3.611C85.506,102.096,86.383,95.169,85.468,96.258z"/>
		</g>
		<path fill="#F9D0D3" stroke="#DB5C6C" stroke-width="0.2706" stroke-linecap="round" stroke-linejoin="round" d="M79.538,108.65
			c0,0-13.646-12.613-27.251-9.589c-11.892,2.765-12.441,8.275-11.183,9.438c1.259,1.164,1.642,1.149-0.23,2.244
			c-1.872,1.096-0.695,1.814,0.028,2.36c0.724,0.546-0.979,1.06,0.591,2.021c1.569,0.959,0.218,2.289-0.36,3.844
			c-0.577,1.555,1.024,1.684,2.643,3.918c1.62,2.233,2.072,5.599,5.318,7.003c3.247,1.405,7.86,1.862,16.59-6.651
			S83.044,111.767,79.538,108.65z"/>
		<path fill="#ED84A1" d="M76.323,108.011c0,0-12.085-5.397-20.665,0.429c1.403-1.65,13.065-3.769,21.154,0.638
			C76.603,108.638,76.323,108.011,76.323,108.011z"/>
		<path fill="#ED84A1" d="M78.841,108.742c0,0-13.135,0.389-19.746,5.946c1.521-1.91,6.615-5.681,19.537-6.51
			C78.913,107.334,78.841,108.742,78.841,108.742z"/>
		<g>
			<path opacity="0.37" fill="#F1A2B3" d="M68.729,111.309c-1.495-0.73-3.746,0.095-5.142,0.787
				c1.238-0.806,2.629-1.953,1.063-2.222c-1.19-0.204-3.481,0.781-4.598,1.32c0.168-0.09,0.371-0.201,0.615-0.335
				c3.749-2.063,7.263-3.605,4.734-4.591c-2.528-0.985-9.48,2.416-5.542,0.282c5.559-3.092,13.579-0.471,7.967-3.568
				c-5.518-3.47-13.54-3.521-18.313-3.164c0.849-0.269,1.768-0.524,2.774-0.758c13.605-3.024,27.251,9.589,27.251,9.589
				c3.506,3.117-5.123,6.074-13.853,14.588c-4.854,4.734-8.434,6.691-11.216,7.259c0.841-1.366,1.956-3.268,3.549-5.872
				C63.056,116.385,71.267,112.55,68.729,111.309z"/>
		</g>
		<path opacity="0.74" fill="#F1A2B3" d="M70.295,102.439c0,0,5.555,3.292,2.063,3.749c-3.493,0.456-3.396-0.313-0.872,0.545
			c2.523,0.858,1.06,0.979-2.22,2.002c-3.279,1.023-3.248,1.788,0.112,1.208c3.36-0.578,4.522-0.241,1.834,1.205
			c-2.688,1.446-3.938,3.729-1.066,2.085c2.871-1.646,8.435-3.013,9.266-2.981C80.242,110.283,78.695,106.642,70.295,102.439z"/>
		<g>
			
				<ellipse transform="matrix(0.5426 -0.84 0.84 0.5426 -51.4913 115.9425)" fill="#FFE01F" stroke="#F39600" stroke-width="0.2706" stroke-linecap="round" stroke-linejoin="round" cx="80.721" cy="105.254" rx="2.014" ry="2.208"/>
			<path fill="#FFE01F" d="M79.718,105.299c0.687-2.359,4.15,0.173,1.387-2.039c0.243,0.062,0.483,0.157,0.709,0.303
				c1.024,0.663,1.365,1.956,0.761,2.891c-0.604,0.935-1.924,1.154-2.947,0.493c-0.071-0.046-0.129-0.101-0.193-0.152
				C80.296,107.013,79.341,106.594,79.718,105.299z"/>
		</g>
		<g>
			
				<ellipse transform="matrix(0.2541 -0.9672 0.9672 0.2541 -45.9759 156.7393)" fill="#FFE01F" stroke="#F39600" stroke-width="0.2706" stroke-linecap="round" stroke-linejoin="round" cx="78.632" cy="108.178" rx="2.003" ry="2.197"/>
			<path fill="#FFE01F" d="M77.698,108.531c-0.081-2.443,3.977-1.122,0.679-2.357c0.25-0.017,0.507-0.002,0.765,0.066
				c1.173,0.309,1.896,1.426,1.615,2.497c-0.282,1.07-1.461,1.687-2.633,1.378c-0.081-0.021-0.154-0.055-0.23-0.083
				C78.775,109.972,77.743,109.872,77.698,108.531z"/>
		</g>
		<g>
			
				<ellipse transform="matrix(0.5426 -0.84 0.84 0.5426 -48.4561 118.1619)" fill="#FFE01F" stroke="#F39600" stroke-width="0.2706" stroke-linecap="round" stroke-linejoin="round" cx="84.272" cy="103.575" rx="2.029" ry="2.224"/>
			<path fill="#FFE01F" d="M83.261,103.62c0.692-2.376,4.18,0.175,1.397-2.054c0.246,0.062,0.489,0.158,0.715,0.305
				c1.031,0.668,1.375,1.97,0.767,2.912c-0.609,0.941-1.938,1.163-2.968,0.496c-0.072-0.046-0.131-0.102-0.195-0.153
				C83.844,105.347,82.882,104.925,83.261,103.62z"/>
		</g>
		<g>
			
				<ellipse transform="matrix(0.5429 -0.8398 0.8398 0.5429 -51.3978 118.1505)" fill="#FFE01F" stroke="#F39600" stroke-width="0.2706" stroke-linecap="round" stroke-linejoin="round" cx="82.834" cy="106.289" rx="2.265" ry="2.483"/>
			<path fill="#FFE01F" d="M81.706,106.34c0.773-2.654,4.666,0.194,1.56-2.293c0.273,0.068,0.545,0.178,0.798,0.341
				c1.152,0.744,1.535,2.198,0.855,3.25c-0.679,1.051-2.163,1.299-3.314,0.554c-0.079-0.051-0.145-0.113-0.216-0.171
				C82.356,108.267,81.283,107.797,81.706,106.34z"/>
		</g>
		<g>
			
				<ellipse transform="matrix(0.5427 -0.8399 0.8399 0.5427 -55.5571 117.7559)" fill="#FFE01F" stroke="#F39600" stroke-width="0.2706" stroke-linecap="round" stroke-linejoin="round" cx="80.359" cy="109.897" rx="2.265" ry="2.483"/>
			<path fill="#FFE01F" d="M79.231,109.947c0.773-2.652,4.666,0.196,1.559-2.293c0.274,0.07,0.545,0.178,0.798,0.341
				c1.152,0.745,1.535,2.199,0.856,3.251c-0.679,1.051-2.164,1.299-3.314,0.554c-0.079-0.052-0.146-0.113-0.217-0.171
				C79.881,111.875,78.807,111.404,79.231,109.947z"/>
		</g>
		<g>
			
				<ellipse transform="matrix(0.5427 -0.8399 0.8399 0.5427 -50.3987 120.9204)" fill="#FFE01F" stroke="#F39600" stroke-width="0.2706" stroke-linecap="round" stroke-linejoin="round" cx="85.853" cy="106.746" rx="2.265" ry="2.484"/>
			<path fill="#FFE01F" d="M84.725,106.796c0.773-2.653,4.667,0.195,1.559-2.292c0.274,0.068,0.545,0.176,0.798,0.34
				c1.151,0.745,1.535,2.199,0.856,3.25c-0.68,1.051-2.163,1.299-3.314,0.555c-0.08-0.052-0.145-0.114-0.217-0.172
				C85.374,108.723,84.3,108.252,84.725,106.796z"/>
		</g>
		<g>
			
				<ellipse transform="matrix(0.5428 -0.8399 0.8399 0.5428 -54.6859 119.9108)" fill="#FFE01F" stroke="#F39600" stroke-width="0.2706" stroke-linecap="round" stroke-linejoin="round" cx="82.796" cy="110.185" rx="2.265" ry="2.483"/>
			<path fill="#FFE01F" d="M81.668,110.235c0.772-2.654,4.666,0.194,1.559-2.293c0.274,0.069,0.545,0.177,0.798,0.341
				c1.152,0.745,1.535,2.199,0.856,3.251c-0.68,1.051-2.163,1.298-3.314,0.553c-0.08-0.051-0.145-0.112-0.217-0.171
				C82.318,112.163,81.245,111.691,81.668,110.235z"/>
		</g>
		<g>
			<path fill="none" d="M111.045,112.438c0.225-0.017,0.45-0.036,0.677-0.06C111.493,112.408,111.268,112.427,111.045,112.438z"/>
			<path fill="#F1A2B3" stroke="#DC6C8E" stroke-width="0.2706" stroke-linecap="round" stroke-linejoin="round" d="
				M115.128,111.743c-1.12,0.321-2.274,0.521-3.406,0.636c0.234-0.029,0.467-0.057,0.707-0.105
				C113.374,112.081,114.277,111.904,115.128,111.743z"/>
		</g>
		<g>
			<path fill="#F1A2B3" d="M43.777,122.887c-1.62-2.234-3.221-2.363-2.643-3.918c0.578-1.555,1.929-2.885,0.36-3.844
				c-1.57-0.961,0.133-1.475-0.591-2.021c-0.724-0.546-1.9-1.265-0.028-2.36c1.872-1.095,1.489-1.08,0.23-2.244
				c-1.259-1.163-0.709-6.674,11.183-9.438c0.507-0.112,1.015-0.197,1.521-0.269c0.859-0.005,1.642,0.046,2.243,0.185
				c2.834,0.655-8.945,3.032-6.406,2.678c2.54-0.354,9.174-2.085,5.972-0.745c-3.203,1.339-5.065,2.688-3.428,2.113
				c1.637-0.574,1.826-0.646-1.031,1.381c-1.06,0.752-1.772,1.094-1.972,1.182c-0.074,0.029-0.072,0.032,0,0
				c0.27-0.105,1.557-0.563,4.277-1.017c5.517-0.919,1.407,0.072-1.526,1.783c-2.933,1.711,0.275,0.5,1.866,0.373
				c1.591-0.126-2.907,0.753-6.096,4.07c-3.189,3.316,2.015-0.718,4.737-1.271c2.723-0.554-0.434,0.336-2.031,1.931
				c-1.597,1.595,3.279-1.022,5.323-0.975c2.045,0.047-3.631,1.802-7.192,5.389c-3.561,3.587,4.04-1.18,5.36-1.679
				c0.055-0.021,0.092-0.036,0.131-0.051c-0.583,0.277-2.437,1.313-3.514,3.312c-1.547,2.869-1.863,2.945,0.928,0.857
				c2.791-2.088-1.362,1.074-1.579,5.296c-0.218,4.222,0.754-0.285,5.044-3.197c4.291-2.914-1.24,0.941-1.649,3.512
				c-0.41,2.569,0.903,0.219,4.163-2.909c3.261-3.128,0.118-0.26-0.863,2.396c-0.98,2.655,0.264,1.84,4.183-2.398
				c3.919-4.24,6.261-6.375,4.255-3.807c-2.006,2.568-8.329,12.201-2.615,6.551c2.494-2.467,2.929-1.617,2.603,0.152
				c-8.28,7.819-12.736,7.354-15.895,5.985C45.849,128.485,45.397,125.12,43.777,122.887z"/>
		</g>
		<g>
			<path fill="#FAD7D8" stroke="#DB5C6C" stroke-width="0.2706" stroke-linecap="round" stroke-linejoin="round" d="M103.031,111.94
				c0,0,11.46,2.485,17.056-2.905c5.598-5.39,6.639-14.623-1.445-17.305c-2.335-0.93-2.055-0.303-1.553-2.174
				c0.501-1.871,0.23-2.243-1.126-2.637c-1.355-0.394-0.729-0.673-0.212-2.162c0.517-1.488-2.521-4.05-8.516-5.538
				c-3.579-0.888-7.628-0.131-10.857,1.542c-5.259,2.723-8.781,8.661-10.357,14.194c-0.919,3.226-1.982,8.331,0.005,11.367
				c1.354,2.065,3.644,3.335,5.963,4.008C95.282,111.287,103.031,111.94,103.031,111.94z"/>
			<g>
				<path fill="#F1A2B3" d="M110.752,111.829c2.493,0.094,8.077-2.36,4.273-1.7c-3.804,0.66-8.763-2.081-6-1.615
					c2.763,0.467,5.287-0.271,3.034-0.758c-2.253-0.486-2.624-1.812-1.6-1.725c1.025,0.088,5.981-0.49,1.989-1.354
					c-3.992-0.864-4.093-1.818-1.564-2.429c2.529-0.609,5.268-0.781,0.955-1.697c-4.313-0.915,5.499-4.62,1.521-3.506
					c-3.978,1.113-4.256-1.11,0.608-2.387c4.865-1.276,2.475-2.012-1.3-0.587c-3.773,1.425-9.607,2.42-7.363,1.056
					c2.245-1.365,1.598-1.595-0.886-1.434c-2.483,0.161,5.521-5.706,2.879-4.709c-2.642,0.997-6.992,2.382-4.12,0.736
					c2.872-1.645,6.213-4.33,3.429-3.709c-2.784,0.62-7.022,1.616-5.522,0.792c1.5-0.826,6.671-2.433,3.699-3.338
					c-2.972-0.904-6.58,3.131-3.937,0.538c2.643-2.594-4.825,2.296-0.962-1.75c1.439-1.508,1.068-2.368,0.037-2.854
					c2.396-0.634,4.955-0.765,7.312-0.181c5.995,1.488,9.032,4.05,8.516,5.538c-0.516,1.489-1.143,1.768,0.212,2.162
					c1.356,0.394,1.627,0.766,1.126,2.637c-0.501,1.871-0.782,1.244,1.553,2.174c8.084,2.682,7.043,11.915,1.445,17.305
					c-2.425,2.336-5.95,3.192-9.168,3.414C110.044,112.099,109.725,111.791,110.752,111.829z"/>
			</g>
			<g opacity="0.52">
				<path fill="#F1A2B3" d="M86.026,106.323c-1.988-3.036-0.924-8.142-0.005-11.367c0.202-0.708,3.61-7.958,3.875-8.671
					c-0.459,1.237-2.315,6.578-2.117,7.871c0.378,2.459,4.832-1.05,6.724-1.377c1.078-0.186,2.158-0.367,3.251-0.43
					c1.077-0.061,2.33,0.282,3.365,0.134c-1.841,0.264-7.439,0.739-12.017,6.09c-4.578,5.35,1.056-0.744,3.978-1.114
					c2.921-0.37-1.229-0.399-3.449,3.199c-2.221,3.598,4.37-0.874,7.286,0.225c-0.301,0.459-4.574,0.563-7.146,3.345
					c-2.572,2.782,4.792,1.727,10.837,4.489c3.173,1.451,6.624,2.854,9.388,3.778c-3.808,0.128-6.964-0.555-6.964-0.555
					s-7.75-0.653-11.043-1.609C89.669,109.658,87.379,108.388,86.026,106.323z"/>
			</g>
			<g>
				<path fill="#EB7598" d="M86.373,107.106c0,0,2.69-4.639,9.835-6.387c0,0-6.332-0.452-10.053,5.692
					C86.16,106.664,86.373,107.106,86.373,107.106z"/>
				<path fill="#EB7598" d="M85.333,105.04c0,0,3.826-9.854,14.199-12.304c-0.902-0.22-10.907,1.834-14.232,11.412
					C85.039,104.03,85.333,105.04,85.333,105.04z"/>
			</g>
		</g>
		<path fill="#FBE2DF" stroke="#DB5C6C" stroke-width="0.2706" stroke-linecap="round" stroke-linejoin="round" d="M84.294,111.081
			c0,0-9.43-4.418-21.064,8.168c-11.633,12.585-9.971,20.755-6.898,21.017c3.075,0.262,1.701,2.678,4.042,2.139
			c2.341-0.538,1.467,1.604,3.459,3.567c1.993,1.964,10.775,4.556,16.624-2.569C86.306,136.279,88.467,114.938,84.294,111.081z"/>
		<g>
			<path opacity="0.37" fill="#F1A2B3" d="M80.946,131.447c-1.979-6.497-1.54-8.301-1.607-13.277
				c-0.038-2.771-1.193,0.24-2.025,2.842c0.766-3.001,1.155-5.81-0.457-4.276c-2.03,1.931-3.067,4.78-1.269,0.178
				c1.798-4.603-2.892,1.136-2.529,0.609c4.803-7.72,0.461-4.486-3.715-1.96c-6.492,3.59-10.782,9.379-13.222,13.55
				c1.425-2.848,3.688-6.163,7.109-9.863c11.634-12.586,21.064-8.168,21.064-8.168c4.173,3.857,2.012,25.198-3.836,32.321
				c-0.683,0.832-1.406,1.525-2.152,2.109C81.051,141.112,82.081,135.177,80.946,131.447z"/>
		</g>
		<g>
			<path fill="#FBE2DF" stroke="#DB5C6C" stroke-width="0.2706" stroke-linecap="round" stroke-linejoin="round" d="M95.977,107.876
				c0,0-8.375-1.968-10.952,0.687c-2.132,0.977-6.064,8.153-3.522,19.224c2.564,8.39,11.318,15.131,14.62,11.427
				c3.302-3.704,2.211-3.853,4.005-3.669c1.795,0.186,2.185-2.894,3.663-2.633c1.479,0.261,1.683-1.022,2.581-2.527
				c0.899-1.503,1.006-0.422,2.54-0.355c1.535,0.067,8.443-7.673,3.058-13.142C106.585,111.418,100.163,108.798,95.977,107.876z"/>
			<path opacity="0.81" fill="#E8588A" d="M84.597,109.027c0,0,8.853,5.971,11.229,12.836c-0.305-1.265-0.703-6.984-11.202-13.215
				C84.393,108.716,84.597,109.027,84.597,109.027z"/>
			<g opacity="0.87">
				<path fill="#F1A2B3" d="M84.037,130.497c1.991,3.56,6.754,9.436,2.921,1.226c-3.834-8.212-2.398-12.29-2.237-8.212
					c0.16,4.08,6.084,11.891,4.424,8.637c-1.659-3.254-1.581-6.13,0.216-2.626c1.797,3.503,5.432,5.021,2.565,0.282
					c-2.868-4.739-3.042-10.796-1.032-5.13c2.01,5.666,4.43,7.166,2.388,3.928c-2.042-3.239-2.351-6.227,0.292-2.309
					c2.644,3.917,4.458,4.611,2.962,2.244c-1.498-2.367-0.805-2.585,0.663-0.982c1.467,1.602,3.057,3.071,1.366,0.646
					c-1.691-2.423-3.437-7.843-1.459-4.665c1.976,3.178,5.721,5.902,4.341,3.275c-1.38-2.626-3.126-6.451-0.405-3.813
					c2.721,2.638,4.597,3.266,2.655,0.98c-1.941-2.285-0.534-2.213,0.796-0.86c1.33,1.352,1.59,1.47,0.033-2.427
					c-1.558-3.896,2.833,2.25,4.539-1.456c0.939-2.042-0.802-4.769-2.556-6.811c1.855,1.215,3.714,2.686,5.463,4.463
					c5.386,5.47-1.523,13.21-3.058,13.142c-1.534-0.067-1.641-1.148-2.54,0.355c-0.898,1.505-1.103,2.788-2.581,2.527
					c-1.479-0.261-1.868,2.818-3.663,2.633c-1.794-0.184-0.703-0.035-4.005,3.669c-2.669,2.994-8.899-0.838-12.544-6.847
					C81.923,128.895,82.213,127.236,84.037,130.497z"/>
			</g>
			<g opacity="0.37">
				<path fill="#F1A2B3" d="M94.256,112.797c-1.167-0.466-5.972-4.171-2.254,1.109c3.718,5.279,3.293,7.466,3.293,7.466
					s-2.447-7.052-7.106-8.656c-4.659-1.604,0.212,3.758,3.418,5.738c3.206,1.98-5.505-2.019-6.951-6.302
					c-1.116-3.309-3.539,3.678-3.972,9.183c-0.144-7.364,2.658-12.001,4.341-12.772c2.577-2.654,10.952-0.687,10.952-0.687
					c1.801,0.397,4.016,1.11,6.384,2.227C96.538,108.308,88.488,106.55,94.256,112.797z"/>
			</g>
			<path fill="#ED84A1" d="M84.292,108.991c0,0,0.692,5.43,5.046,7.796C85.94,115.58,83.866,111.545,84.292,108.991z"/>
			<path fill="#E8588A" d="M85.025,108.562c0,0,7.341,1.627,12.803,7.412c-0.275-0.499-4.182-5.708-12.558-7.677
				C84.898,108.568,85.025,108.562,85.025,108.562z"/>
		</g>
		<g opacity="0.87">
			<path fill="#F1A2B3" d="M56.581,128.234c-0.521,2.108-0.973,4.639-0.268,5.012c1.239,0.653,0.032-0.832,1.945-2.502
				c1.913-1.672,0.141,1.973,0.049,2.87c-0.093,0.897-0.914,1.121,2.53-2.206c3.445-3.327-0.525,1.232-0.833,3.16
				c-0.308,1.928,2.873-3.24,2.494-1.502c-0.378,1.738,0.984,0.663,3.188-1.722c2.204-2.384-1.014,5.084-1.167,6.047
				c-0.154,0.964,3.737-7.232,6.16-8.923c2.423-1.692-0.903,1.376-1.808,4.347c-0.905,2.974,2.459-2.394,2.459-2.394
				s-1.747,5.877-1.856,7.987c-0.108,2.111,1.654-1.788,2.944-3.052c1.291-1.263,0.796-0.861,0.319,3.243
				c-0.478,4.104,1.385,1.157,2.469-2.14c1.083-3.298,1.979-0.014,1.141,3.02c-0.839,3.033,1.555,0.577,2.159-3.531
				c0.605-4.109,0.841,0.285-0.039,3.895c-0.879,3.609,0.013,3.574,0.938,1.112c0.607-1.619,2.219-1.566,2.209,0.77
				c-0.368,0.618-0.753,1.185-1.157,1.677c-5.848,7.125-14.631,4.533-16.624,2.569c-1.993-1.964-1.119-4.105-3.459-3.567
				c-2.341,0.539-0.967-1.877-4.042-2.139C54.071,140.073,52.581,135.596,56.581,128.234z"/>
		</g>
		<path opacity="0.74" fill="#F1A2B3" d="M85.38,98.081c0.056-0.28-0.233,5.435,2.375,1.948c-2.821,2.92-1.278,4.838,2.104,3.173
			c-1.337,1.712-1.716,3.451-0.039,3.896c-0.377,0.143-2.993,0.182-2.993,0.182S83.994,105.029,85.38,98.081z"/>
		<path fill="#ED84A1" d="M81.005,110.482c0,0-5.905,2.402-9.424,10.329C71.654,119.404,75.535,110.953,81.005,110.482z"/>
		<path fill="#ED84A1" d="M82.756,110.579c0,0-3.91,2.389-5.487,8.418C77.157,117.991,78.93,111.548,82.756,110.579z"/>
	</g>
</g>
</svg>
