<?xml version="1.0" standalone="no"?>
<!DOCTYPE svg PUBLIC "-//W3C//DTD SVG 20010904//EN"
 "http://www.w3.org/TR/2001/REC-SVG-20010904/DTD/svg10.dtd">
<svg version="1.0" xmlns="http://www.w3.org/2000/svg"
 width="192.000000pt" height="192.000000pt" viewBox="0 0 192.000000 192.000000"
 preserveAspectRatio="xMidYMid meet">
<metadata>
Created by potrace 1.11, written by Peter Selinger 2001-2013
</metadata>
<g transform="translate(0.000000,192.000000) scale(0.100000,-0.100000)"
fill="#000000" stroke="none">
<path d="M476 1483 c-1 -2 -54 -5 -117 -9 -126 -7 -164 -20 -230 -81 -60 -56
-83 -113 -83 -213 -1 -148 38 -250 114 -295 33 -19 50 -20 326 -19 l291 0 18
-55 c10 -31 26 -73 36 -93 14 -28 16 -38 7 -39 -7 -1 -154 -2 -327 -2 l-313
-2 -29 -40 c-15 -22 -28 -45 -29 -52 0 -6 -3 -13 -7 -15 -9 -3 -83 -122 -83
-132 0 -3 197 -6 438 -6 435 0 437 0 487 23 l50 23 35 -20 c33 -20 49 -21 360
-21 l325 0 1 318 1 318 -230 -2 -229 -3 -37 -50 c-79 -109 -104 -146 -100
-150 2 -2 80 -7 173 -10 93 -3 171 -8 174 -10 2 -2 5 -36 7 -75 3 -71 3 -71
-23 -72 -15 0 -97 -3 -183 -6 -171 -5 -197 0 -238 53 -18 23 -23 43 -36 145
-8 65 -78 119 -187 143 -35 8 -142 18 -238 22 -96 3 -193 8 -215 9 -22 2 -54
3 -71 4 -28 1 -33 5 -42 43 -20 77 -24 76 245 76 l238 0 98 142 c54 78 96 145
92 148 -6 6 -463 11 -469 5z"/>
<path d="M1526 1483 c-2 -3 -10 -6 -18 -7 -7 -2 -20 -6 -28 -9 -15 -5 -44 -14
-235 -72 -103 -31 -117 -40 -81 -49 25 -6 26 -10 26 -76 0 -53 -4 -71 -16 -78
-25 -14 -14 -57 15 -57 28 0 33 17 35 118 0 39 5 67 11 67 6 0 71 -20 144 -45
l134 -45 189 61 c104 34 185 65 181 69 -12 11 -352 128 -357 123z"/>
<path d="M1283 1211 c1 -75 2 -80 26 -91 84 -39 263 -41 385 -6 l56 17 0 80
c0 73 -2 79 -17 70 -24 -12 -160 -57 -199 -65 -28 -6 -175 35 -226 64 -10 6
-19 10 -21 10 -3 0 -4 -36 -4 -79z"/>
</g>
</svg>
