<!-- Generator: Adobe Illustrator 17.0.0, SVG Export Plug-In  -->
<svg version="1.1"
	 xmlns="http://www.w3.org/2000/svg" xmlnsXlink="http://www.w3.org/1999/xlink" xmlnsa="http://ns.adobe.com/AdobeSVGViewerExtensions/3.0/"
	 x="0px" y="0px" width="50px" height="32px" viewBox="0 0 159.832 91.422" enable-background="new 0 0 159.832 91.422"
	 xmlSpace="preserve">
<defs>
</defs>
<g>
	<polygon fill="#FF1600" points="93.414,11.649 128.272,0.703 159.832,11.649 126.623,22.595 	"/>
	<path fill="#FF1600" d="M106.644,31.01V17.363c0,0,16.585,7.051,19.647,6.823c3.062-0.227,18.353-4.776,20.353-6.823V31.01
		c0,0-6.383,3.294-20,3.867C114.632,35.382,106.644,31.01,106.644,31.01z"/>
	<path fill="#FF1600" d="M94.702,11.677"/>
	<path fill="#FF1600" d="M94.363,41.927"/>
	<g>
		<g>
			<path fill="#FF1600" d="M98.744,14.634c-0.192,2.978,0.003,5.952-0.04,8.932c-0.02,1.391-0.207,2.774-0.467,4.139
				c-0.07,0.351-0.162,0.697-0.276,1.036c1.561,0.2,1.862-0.314,0.904-1.542c-0.538-1.531-3.014-1.376-2.946,0.399
				c0.093,2.437,1.2,3.461,3.62,3.547c1.612,0.057,1.884-1.986,0.757-2.795c-0.886-0.636-1.423-1.122-2.478-1.516
				c0.119,0.914,0.239,1.828,0.358,2.742c0.856-0.434,1.43-1.249,2.07-1.94c1.325-1.431-0.669-3.384-2.121-2.121
				c-0.506,0.44-0.849,0.721-0.974,1.388c-0.128,0.681,0.079,1.318,0.689,1.694c0.215,0.13,0.428,0.265,0.638,0.404
				c1.374,1.364,3.496-0.757,2.121-2.121c-0.394-0.391-0.781-0.588-1.245-0.873c0.23,0.565,0.46,1.129,0.689,1.694
				c0.067-0.021,0.135-0.043,0.202-0.064c-0.707-0.707-1.414-1.414-2.121-2.121c-0.444,0.48-0.868,1.17-1.463,1.471
				c-1.261,0.639-0.757,2.325,0.358,2.742c0.554,0.207,1.244,0.842,1.761,1.213c0.252-0.932,0.505-1.863,0.757-2.795
				c-0.792,0.202-0.998,0.02-0.62-0.547c-0.982,0.133-1.964,0.266-2.946,0.399c0.4,1.139,0.873,2.997,2.238,3.373
				c1.159,0.319,2.046-0.414,2.476-1.435c1.969-4.67,0.742-10.395,1.058-15.301C101.869,12.701,98.868,12.713,98.744,14.634
				L98.744,14.634z"/>
		</g>
	</g>
</g>
<path fill="#05578b" d="M17.644,2c0,0-19.5,6.5-17.5,27.5s10,23,13.5,24s50,0,50,0s2.641,12.336,9,21.5
	c6.359,9.164,15.435,15.155,19,15.5c15.5,1.5,55,0.5,55,0.5V36l-39.5,0.5L94.644,54l31,1l0.5,13l-30.5,1c0,0-5.741-1.158-8.5-5.5
	c-2.431-3.825-1.753-8.689-2.638-13.436c-0.951-5.099-11.184-12.397-26.602-12.13l-36.76-1.684c0,0-4.5-10.25,0.5-10.25s40,0,40,0
	s13-19.5,16.5-24S17.644,2,17.644,2z"/>
<path fill="#05578b" d="M10.05,69.904"/>
<path fill="#05578b" d="M0.106,91.422L13.457,70h58.174c0,0,10.198,13.751,12.483,15.788c2.285,2.036-6.557,4.345-9.651,5.634"/>
</svg>
